<?xml version="1.0" encoding="utf-8"?>
<!-- Generator: Adobe Illustrator 24.3.0, SVG Export Plug-In . SVG Version: 6.00 Build 0)  -->
<svg version="1.1" id="Lager_1" xmlns="http://www.w3.org/2000/svg" xmlns:xlink="http://www.w3.org/1999/xlink" x="0px" y="0px"
	 viewBox="0 0 412 67" style="enable-background:new 0 0 412 67;" xml:space="preserve">
<g>
	<path d="M38.44,48.49l-0.4,4.39c-0.18,1.79-0.91,3.69-2.2,5.71c-1.49,2.29-3.19,3.75-5.1,4.39c-0.38,0.12-0.94,0.29-1.67,0.53
		c-1.44,0.44-2.27,0.66-2.5,0.66h-3.25l-1.58-0.48c-0.06,0.06-0.18,0.15-0.35,0.26c-0.56-0.06-1.3-0.16-2.24-0.31l0.57-1.85h-1.23
		l0.13-0.97l-1.32-0.35c-0.06,0.06-0.09,0.23-0.09,0.53c-0.03,0-0.13,0.02-0.29,0.07c-0.16,0.04-0.31,0.07-0.46,0.07h-0.48
		c-0.15,0-0.15,0.07,0,0.22c-0.06,0-0.22-0.12-0.48-0.35c-0.26,0.23-0.4,0.51-0.4,0.83c-0.09-0.12-0.4-0.18-0.92-0.18
		c-0.09,0.09-0.13,0.32-0.13,0.7c-0.29,0-0.51,0.04-0.66,0.13c0,0.21,0.07,0.31,0.2,0.31s0.25,0.05,0.35,0.15
		c0.1,0.1,0.17,0.15,0.2,0.15c-0.23,0-0.41-0.06-0.53-0.18l-1.45,1.27c0.09,0.12,0.26,0.15,0.53,0.09H6.84
		c-0.09,0.12-0.13-0.07-0.13-0.57c-0.06,0-0.13,0.04-0.22,0.13S6.34,64,6.31,64c-0.18-0.18-0.34-0.26-0.48-0.26l-0.26,0.57
		c-0.06,0-0.18-0.1-0.35-0.31c-0.06,0-0.19,0.1-0.4,0.31C4.64,64.1,4.38,64,4.03,64c0.03,0,0.04,0.13,0.04,0.4
		c-0.18,0-0.34-0.07-0.48-0.22c-0.21,0-0.23,0.07-0.09,0.22H0.42v-6.94l0.44,0.26l0.35-0.13c0,0.03,0-0.15,0-0.53
		c0.03,0,0.08,0.02,0.15,0.07c0.07,0.04,0.15,0.07,0.24,0.07v-0.35c0-0.18-0.21-0.47-0.62-0.88c-0.12,0.03-0.32,0.12-0.62,0.26
		v-3.78c0.12-0.06,0.26-0.1,0.44-0.13c0.06-0.06,0.09-0.16,0.09-0.31s0.01-0.23,0.04-0.26c0.18-0.06,0.26-0.13,0.26-0.22L1,51.17
		c-0.18,0.15-0.34,0.22-0.48,0.22L0.38,35.04c0.06-0.44,0.23-1.08,0.53-1.93c0-0.12-0.15-0.18-0.44-0.18v-4.66
		c0.06,0.12,0.13,0.18,0.22,0.18L1,27.88c0,0.21,0.04,0.34,0.13,0.4c0.06-0.23,0.18-0.62,0.35-1.14c-0.09-0.09-0.22-0.07-0.4,0.04
		c0-0.03,0-0.12,0-0.29s0-0.26,0-0.29c-0.06-0.06-0.29-0.19-0.7-0.4V15.04c0.18-0.18,0.35-0.18,0.53,0c0,0.09-0.03,0.21-0.09,0.35
		c-0.06,0.15-0.09,0.29-0.09,0.44l1.32-0.97c-0.06,0,0.04,0.13,0.31,0.4l1.05-0.4c0,0.06-0.15-0.19-0.44-0.75l1.23-1.23
		c-0.06-0.09-0.19-0.07-0.4,0.04v-1.49l-1.45-0.09c0.26,0,0.38-0.04,0.35-0.13c-0.09-0.2-0.12-0.35-0.09-0.44l0.18-0.13
		c0.03,0.12,0,0.22-0.09,0.31l0.22,0.22c0.26-0.26,0.4-0.35,0.4-0.26c0.03,0.15,0,0.22-0.09,0.22c0.06,0.03,0.16,0.04,0.31,0.04
		l0.4-1.93h0.18C4.2,8.28,4.17,7.73,4.03,7.62C3.85,7.79,3.73,7.88,3.68,7.88c0-0.18,0.09-0.35,0.26-0.53
		c0-0.26-0.07-0.32-0.22-0.18L3.59,6.25C3.41,6.43,3.21,6.4,2.97,6.17c0.15-0.15,0.22-0.28,0.22-0.4c0,0.12,0.09,0.28,0.26,0.48
		l0.66-0.44C4.64,5.79,5.04,5.52,5.3,5.02c0.18-0.44,0.35-0.86,0.53-1.27C5.74,3.81,5.7,3.88,5.7,3.97C5.76,4,5.82,4.05,5.9,4.12
		c0.07,0.07,0.12,0.14,0.15,0.2C6.02,4.23,6.11,4.19,6.31,4.19c0.32,0,0.59-0.38,0.79-1.14C6.93,2.96,6.68,2.78,6.36,2.52
		C6.24,2.69,6.03,2.97,5.74,3.35C5.71,3.06,5.89,2.71,6.27,2.3c-0.06-0.38-0.29-0.66-0.7-0.83h12.3V1.9l0.48,0.22
		c0.18-0.15,0.16-0.32-0.04-0.53l0.62,0.26c0.15-0.18,0.22-0.31,0.22-0.4l2.24,0.26c-0.7-0.09,0.63-0.13,4-0.13
		c0.32,0,0.57,0.18,0.75,0.53c0.06,0,0.22,0.04,0.48,0.13s0.44,0.13,0.53,0.13h2.2c0.76,0,2.08,0.71,3.96,2.13
		c1.87,1.42,2.93,2.51,3.16,3.27c0.23,0.35,0.51,0.89,0.83,1.63c0.41,1.29,0.7,2.43,0.88,3.43c0.09,0.47,0.12,0.76,0.09,0.88
		c-0.15,0.23-0.22,0.45-0.22,0.66c0,0.35-0.02,0.56-0.07,0.64s-0.07,0.12-0.07,0.15v0.4c0.35,0.18,0.53,0.38,0.53,0.62
		c-0.03,1.82-0.26,4.2-0.7,7.16c-0.03-0.15-0.09-0.37-0.18-0.66c-0.09,0.06-0.22,0.09-0.4,0.09l-0.35,1.05v1.8l-1.1,1.1
		c0.06,0.18,0.19,0.4,0.4,0.66c-0.38,0.21-0.57,0.45-0.57,0.75c-0.23-0.35-0.45-0.5-0.66-0.44c0,0.15,0.09,0.22,0.26,0.22
		c-0.26,0.12-0.4,0.31-0.4,0.57v0.44l-3.03,2.02l3.56,2.2c-0.09,0.09-0.26,0.28-0.53,0.57c0.15,0.32,0.69,0.57,1.63,0.75l1.54,3.34
		c0.03-0.06-0.16-0.09-0.57-0.09l-0.26,0.79v0.88c0.03,0.09,0.09,0.13,0.18,0.13l0.31-0.57c0,0.21,0.04,0.35,0.13,0.44
		c0.18-0.18,0.26-0.45,0.26-0.83L38.44,48.49z M2.45,1.46C2.33,1.61,2.23,1.68,2.14,1.68C2.05,1.95,2.01,2.36,2.01,2.91
		c-0.15,0-0.29-0.07-0.44-0.22L0.91,3.57c0.32,0.29,0.48,0.31,0.48,0.04C1.13,3.88,1.17,4.06,1.52,4.14H0.73
		c0.03,0.21,0.03,0.48,0,0.83C0.7,5.04,0.6,5.14,0.42,5.29V1.46H2.45z M1.35,17.11L0.56,16.8l0.13,1.05h0.48L1.35,17.11z
		 M6.53,59.12l-0.62,0.79c0-0.21-0.04-0.34-0.13-0.4c-0.09,0.15-0.18,0.29-0.26,0.44c-0.18,0.23-0.41,0.35-0.7,0.35
		c-0.12,0-0.22,0.04-0.31,0.13s-0.15,0.13-0.18,0.13l0.31-0.26c-0.18,0.06-0.31,0.03-0.4-0.09c-0.03-0.03-0.09,0.09-0.18,0.35
		c-0.09,0-0.32,0-0.7,0c0,0.09,0.02,0.23,0.07,0.42s0.07,0.33,0.07,0.42H3.02l-0.26-0.4c-0.06,0.09-0.09,0.18-0.09,0.26
		c-0.18-0.21-0.34-0.51-0.48-0.92h0.4c0-0.15-0.09-0.29-0.26-0.44c-0.21-0.03-0.35,0.1-0.44,0.4c0.03-0.18,0.01-0.44-0.04-0.79
		C1.74,59.6,1.7,59.69,1.7,59.78l-0.92-1.19c0.23-0.03,0.48,0.09,0.75,0.35c0.03-0.18,0.09-0.4,0.18-0.66
		c-0.03,0.21,0.15,0.47,0.53,0.79l0.22-0.57l-0.83-0.53v-0.66c0.23-0.06,0.36-0.19,0.37-0.4c0.01-0.21,0.11-0.4,0.29-0.57
		c0,0.35-0.04,0.53-0.13,0.53l0.22,0.18l0.09-0.13v-0.75L1.48,54.9c0.06,0,0.18,0.07,0.35,0.22c0.15-0.15,0.16-0.28,0.04-0.4
		c0.76,0.21,1.32,0.26,1.67,0.18c-0.21-0.15-0.48-0.34-0.83-0.57l0.44,0.13l0.4-0.53c-0.09-0.12-0.13-0.22-0.13-0.31l1.05,0.26
		c0.06,0.09,0.01,0.21-0.13,0.35l0.92,1.01c0.15-0.18,0.25-0.26,0.31-0.26c0.09,0.47,0.04,1.14-0.13,2.02
		c0,0.12-0.12,0.18-0.35,0.18c0.12,0,0.07-0.09-0.13-0.26l-0.22,0.4c0.06,0-0.04-0.15-0.31-0.44l-0.79,2.15
		c0.15,0.03,0.22,0,0.22-0.09l0.7,0.7c0.03-0.15,0.16-0.34,0.4-0.57l0.4,0.18c0.18-0.18,0.22-0.31,0.13-0.4
		c0.2-0.06,0.45,0.07,0.75,0.4C6.34,59.16,6.44,59.12,6.53,59.12z M1.26,2.87L1.04,2.78L0.86,3.13l0.22,0.09L1.26,2.87z M2.58,43.12
		c-0.09,0-0.18-0.04-0.26-0.13c0.06-0.09,0.07-0.15,0.04-0.18c0,0.06-0.12,0.1-0.35,0.13l-0.44-0.26c-0.38,0-0.41,0.15-0.09,0.44
		c-0.26,0.29-0.4,0.4-0.4,0.31l0.75,0.75C1.92,44.06,2.06,44,2.27,44C2.27,43.59,2.37,43.3,2.58,43.12z M1.7,6.08L1.21,5.77
		L1.3,5.59V4.45c0,0.03,0.07,0.22,0.22,0.57L1.7,4.72V6.08z M2.84,37.41l-0.22-0.66c0,0.12-0.13,0.31-0.4,0.57
		c-0.15-0.32-0.28-0.48-0.4-0.48c0.03,0,0.04,0.13,0.04,0.4c-0.26,0.26-0.4,0.37-0.4,0.31c0.73,0.38,1.14,0.57,1.23,0.57
		C2.5,37.73,2.4,37.5,2.4,37.41H2.84z M1.79,16.23V15.7H1.57v0.53H1.79z M2.97,5.64C2.65,5.46,2.42,5.32,2.27,5.2
		c0-0.23,0.07-0.28,0.22-0.13C2.4,4.98,2.36,4.86,2.36,4.72L2.14,5.24l0.31,0.22C2.36,5.55,2.21,5.59,2.01,5.59
		C2.12,5.68,2.18,5.8,2.18,5.95L2.97,5.64z M5.7,62.42c-0.38-0.15-0.53-0.34-0.44-0.57l-0.57,0.97c-0.12-0.26-0.41-0.59-0.88-0.97
		c0.2,0.21,0.22,0.47,0.04,0.79l-0.83-0.79c0,0.09-0.04,0.18-0.13,0.26c-0.15-0.18-0.25-0.26-0.31-0.26c0,0.09-0.09,0.15-0.26,0.18
		c0.15,0.62,0.51,0.97,1.1,1.05l0.75,0.79c0-0.09,0.04-0.18,0.13-0.26c0.12,0.15,0.29,0.34,0.53,0.57L5.7,62.42z M3.37,58.72H2.84
		c0.03,0.03,0.12,0.12,0.26,0.26H2.45c0.09-0.18,0.13,0.09,0.13,0.79c0.35-0.18,0.62-0.44,0.79-0.79c-0.09,0-0.18-0.04-0.26-0.13
		C3.19,58.8,3.28,58.75,3.37,58.72z M3.1,1.73L3.06,1.9L2.58,1.73V1.55L3.1,1.73z M5.7,49.76v-0.79l-1.05-0.26
		c0.12,0.23,0.07,0.45-0.13,0.66H4.16c-0.09-0.09-0.15-0.18-0.18-0.26c0.15,0.41,0.15,0.82,0,1.23c-0.21-0.21-0.32-0.29-0.35-0.26
		c0-0.21,0.01-0.47,0.04-0.79c0.03-0.32,0.04-0.54,0.04-0.66c0,0.32-0.19,0.29-0.57-0.09l-0.44,1.14c-0.03,0.09-0.06,0.22-0.09,0.4
		c0,0.06-0.02,0.12-0.04,0.18c0.09-0.29,0.13,0.09,0.13,1.14c0.03,0,0.06-0.01,0.09-0.04c0.03-0.03,0.12-0.04,0.26-0.04
		c0.09,0,0.26,0.13,0.53,0.4L5.7,49.76z M3.41,10.21l-0.4,0.18v-0.18l0.31-0.18L3.41,10.21z M3.59,11.92l-0.22-0.09l-0.31,0.48
		l0.18,0.13L3.59,11.92z M4.07,4.36H3.54V4.14h0.53V4.36z M3.98,49.89H3.76v-0.35h0.22V49.89z M4.2,1.46C4,1.7,3.92,1.84,3.98,1.9
		C3.69,1.61,3.76,1.46,4.2,1.46z M4.47,52.22c0-0.06-0.07-0.15-0.2-0.29c-0.13-0.13-0.23-0.17-0.29-0.11
		C3.78,51.83,3.94,51.96,4.47,52.22z M4.6,13.9v-0.53l-0.62,0.31v0.48C4.19,13.99,4.39,13.9,4.6,13.9z M4.91,6.43
		c-0.23,0-0.35-0.1-0.35-0.31L4.25,6.78c0.03-0.06,0.13-0.12,0.31-0.2C4.73,6.51,4.85,6.46,4.91,6.43z M4.51,49.89v-0.35H4.29v0.35
		H4.51z M4.64,51.74l-0.18-0.22l-0.18,0.13l0.22,0.22L4.64,51.74z M5.96,46.24c-0.03,0-0.13,0.09-0.31,0.26
		c-0.12-0.26-0.31-0.4-0.57-0.4c-0.06,0.18-0.15,0.4-0.26,0.66H4.38v0.4l0.31-0.26c0.12,0.12,0.1,0.26-0.04,0.44c0,0.03,0,0.2,0,0.5
		c0,0.31,0,0.54,0,0.68c0.09,0,0.19-0.04,0.31-0.13c0.09,0.09,0.13,0.19,0.13,0.31L5.96,46.24z M4.6,56.18v-1.19H4.38v1.19H4.6z
		 M5.39,3.75c-0.15-0.03-0.38-0.12-0.7-0.26c0.09,0,0.16-0.03,0.22-0.09c0.03-0.12,0.12-0.12,0.26,0C5.32,3.51,5.39,3.63,5.39,3.75z
		 M5.21,48.13v-0.4H4.99v0.4H5.21z M7.1,58.46l-0.22,0.62c0-0.18-0.04-0.31-0.13-0.4l-0.44,0.26c0-0.35,0.03-0.56,0.09-0.62
		l-0.22-0.35l-0.22,0.31c-0.03,0-0.08-0.09-0.15-0.29c-0.07-0.19-0.17-0.29-0.29-0.29c-0.15,0-0.23,0.02-0.26,0.07
		c-0.03,0.04-0.06,0.07-0.09,0.07l0.18-0.53c0.06,0,0.16,0.04,0.31,0.13l0.4-0.83l0.44,0.57c0.26-0.26,0.32-0.4,0.18-0.4
		c0,0.53-0.04,0.91-0.13,1.14C6.62,58.02,6.81,58.2,7.1,58.46z M5.92,63.38l-0.18,0.4l-0.22-0.09l0.18-0.35L5.92,63.38z M8.47,3
		C8.17,3,8.03,2.89,8.03,2.65C7.91,2.77,7.85,2.59,7.85,2.12L7.5,2.78c0,0.12,0,0.28,0,0.48L7.1,3.44c0.18,0,0.26,0.15,0.26,0.44
		c0.03,0,0.04-0.04,0.02-0.13C7.37,3.66,7.43,3.62,7.54,3.62c0.15,0,0.3,0,0.46,0c0.16,0,0.26,0,0.29,0C8.29,3.29,8.35,3.09,8.47,3z
		 M10.93,33.54l-0.62-0.18c-0.18,0.38-0.47,0.91-0.88,1.58l0.88,0.31L10.93,33.54z M10.18,21.15c0.09-0.23,0.04-0.5-0.13-0.79
		c-0.26,0.23-0.38,0.45-0.35,0.66c0.09,0,0.19-0.04,0.31-0.13C10.09,20.98,10.15,21.06,10.18,21.15z M10.97,34.82v-0.48h-0.22v0.48
		H10.97z M12.2,15.97c-0.15-0.03-0.22-0.12-0.22-0.26c-0.15,0.03-0.32,0.13-0.53,0.29c-0.21,0.16-0.38,0.26-0.53,0.29l0.4,0.35
		c0,0.06,0.07,0.01,0.22-0.13c0.09,0.09,0.19,0.13,0.31,0.13L12.2,15.97z M15.58,7l-1.1-0.44c0.09-0.26,0.09-0.4,0.02-0.42
		c-0.07-0.01-0.17-0.07-0.29-0.18c-0.12-0.1-0.25-0.15-0.4-0.15h-0.57c0,0.35-0.13,0.51-0.4,0.48l1.05,0.44
		c-0.06,0.09-0.13,0.13-0.22,0.13c0.23,0.03,0.38,0,0.44-0.09c0.09,0.09,0.12,0.16,0.09,0.22c-0.15,0.23-0.32,0.35-0.53,0.35
		c0,0.09,0.06,0.22,0.18,0.4c0-0.09,0.04-0.18,0.13-0.26c0.06,0.12,0.09,0.34,0.09,0.66l1.32-0.44V7.09L15.58,7z M13.52,6.83h-0.4
		V6.61h0.4V6.83z M22.92,48.97l-0.31-0.26l-0.26,0.26c-0.06-0.23-0.16-0.34-0.31-0.31c-0.23,0.06-0.38,0.07-0.44,0.04v-9.71
		c0-0.41-0.23-0.86-0.68-1.34c-0.45-0.48-0.94-0.72-1.47-0.72h-2.5v1.63l-0.88-0.26c-0.44,0.21-0.69,0.31-0.75,0.31
		c0.09,0.29,0,0.54-0.26,0.72c-0.26,0.19-0.41,0.33-0.44,0.42h0.57v0.83c0.09,0.15,0.22,0.32,0.4,0.53v0.48
		c-0.21,0.18-0.28,0.41-0.22,0.7c0.06,0.38,0.09,0.54,0.09,0.48c0.09,0,0.19-0.04,0.31-0.13l0.26,0.97l0.7-0.4l0.22,0.22v0.79
		l-0.4,0.97c0.09,0.06,0.22,0.16,0.4,0.31v7.08l-0.26,1.01c0.23,0,0.4-0.03,0.48-0.09c0.09,0.09,0.13,0.19,0.13,0.31
		c0-0.23,0.09-0.44,0.26-0.62h1.36c0.64,0,1.25-0.41,1.8-1.23c0.64-0.94,1.04-1.44,1.19-1.49c0.09,0.09,0.15,0.18,0.18,0.26
		c0-0.47,0.18-0.88,0.53-1.23c0.09,0.09,0.13,0.18,0.13,0.26C22.98,49.32,23.04,49.06,22.92,48.97z M22.7,16.05
		c0-0.12-0.07-0.33-0.22-0.64c-0.15-0.31-0.22-0.53-0.22-0.68c-0.26,0-0.4-0.07-0.4-0.22c0,0.09,0.09-0.1,0.26-0.57
		c-0.59-0.29-0.82-0.44-0.7-0.44v-0.53c-0.7,0-1.04-0.01-1.01-0.04l-1.89-0.66h-1.58v4.39c-0.15,0.09-0.37,0.22-0.66,0.4l-0.31,0.66
		c0.06,0,0.18-0.09,0.35-0.26c0.06,0.06,0.09,0.23,0.09,0.53l0.66-0.26v8.66c0.38-0.29,0.86-0.44,1.45-0.44
		c0.44,0,0.66,0.23,0.66,0.7c0.03-0.06,0.05-0.13,0.07-0.22c0.01-0.09,0.05-0.15,0.11-0.18c0.32,0.15,0.66,0.13,1.01-0.04
		c0-0.21,0.01-0.34,0.04-0.4l0.44,0.26l0.31-0.31l0.44-3.03v-6.55l0.22-0.22c0.06,0.06,0.09,0.19,0.09,0.4l0.44-0.26
		c0.09,0.09,0.13,0.22,0.13,0.4C22.63,16.35,22.7,16.2,22.7,16.05z M16.46,61.41l-0.18,0.53C16.4,61.87,16.46,61.7,16.46,61.41z
		 M21.65,14.3c0,0.09-0.1,0.1-0.31,0.04c0.03,0.18,0.09,0.23,0.18,0.18S21.65,14.38,21.65,14.3z M22.4,1.64h-0.48V1.38h0.48V1.64z
		 M23.76,45.98c-0.03,0-0.13,0.07-0.31,0.22c-0.15-0.26-0.29-0.4-0.44-0.4c-0.26,0.5-0.51,0.75-0.75,0.75l1.36,0.48L23.76,45.98z
		 M23.1,47.21h-0.4v-0.22h0.4V47.21z M24.55,16.45c-0.06-0.03-0.15-0.1-0.26-0.22c-0.26,0.23-0.38,0.45-0.35,0.66
		c0.09,0,0.19-0.03,0.31-0.09c0.09,0.06,0.15,0.15,0.18,0.26C24.42,16.51,24.46,16.3,24.55,16.45z M33.91,15.31l-0.31,0.92
		c-0.03,0-0.09-0.05-0.18-0.15s-0.16-0.15-0.22-0.15c0-0.09-0.13,0.28-0.4,1.1c-0.38,0-0.56-0.01-0.53-0.04
		c0.15,0.15,0.28,0.22,0.4,0.22l-0.13,0.97h-0.4c-0.15,0-0.23-0.05-0.26-0.15c-0.03-0.1-0.06-0.15-0.09-0.15l-0.62,0.13l0.13-0.18
		L30.7,17.2c-0.09,0.06-0.13,0.13-0.13,0.22c0-0.23-0.06-0.4-0.18-0.48c-0.18,0-0.07-0.19,0.31-0.57c0.03,0.03,0.18,0.35,0.44,0.97
		c0.23-0.23,0.29-0.4,0.18-0.48l0.83-0.26c-0.12-0.06-0.4-0.29-0.83-0.7l0.7-0.31L31.89,15c-0.18,0.23-0.48,0.51-0.92,0.83
		c0-0.12-0.04-0.22-0.13-0.31c-0.03,0.09-0.13,0.35-0.31,0.79c-0.15,0.12-0.4,0.28-0.75,0.48c-0.15,0.18-0.32,0.47-0.53,0.88
		c-0.15,0.18-0.38,0.19-0.7,0.04c-0.12,0.32-0.37,0.78-0.75,1.36c-0.23-0.47-0.34-0.72-0.31-0.75c-0.03-0.15-0.18-0.44-0.44-0.88
		c-0.12,0.09-0.1,0.21,0.04,0.35l-0.66,0.62c-0.18-0.21-0.29-0.31-0.35-0.31l-0.44,0.7c-0.09-0.35-0.42-0.76-1.01-1.23v-0.48
		c0.23-0.26,0.44-0.32,0.62-0.18c0.12-0.15,0.18-0.41,0.18-0.79c0.35-0.12,0.5-0.35,0.44-0.7c0.2,0,0.37,0.13,0.48,0.4
		c0.15,0,0.22-0.09,0.22-0.26l0.57,0.79c0.06-0.06,0.06-0.1,0-0.13c0.26-0.26,0.53-0.41,0.79-0.44c0.09-0.21,0.28-0.48,0.57-0.83
		h1.36c0.47-0.26,0.79-0.56,0.97-0.88c0.09-0.21,0.29-0.31,0.62-0.31c0.73,0,1,0.04,0.79,0.13c0.03,0.41-0.04,0.7-0.22,0.88
		c0.15,0.12,0.35,0.32,0.62,0.62l0.53-0.53C33.31,14.93,33.56,15.07,33.91,15.31z M27.63,14.3v-0.53c-0.03,0-0.19-0.13-0.48-0.4
		c-0.06,0.21-0.18,0.45-0.35,0.75c0.26,0,0.42-0.03,0.48-0.09C27.45,14.21,27.57,14.3,27.63,14.3z M27.76,19.39l-0.66-0.09
		c0.06,0,0.1,0.04,0.13,0.13l-0.4,0.26v0.48c0.03,0,0.07-0.02,0.11-0.07c0.04-0.04,0.14-0.07,0.29-0.07c0.12,0,0.2,0.04,0.26,0.13
		c0.06,0.09,0.1,0.13,0.13,0.13c0-0.09,0.02-0.24,0.07-0.46C27.74,19.63,27.76,19.48,27.76,19.39z M27.19,20.54v-0.26h-0.35v0.26
		H27.19z M27.76,2.17h-0.4V1.95h0.4V2.17z M28.07,13.9v-0.4h-0.22v0.4H28.07z M29.52,62.9v-1.14c-0.03,0.15-0.12,0.22-0.26,0.22
		c-0.06-0.15-0.25-0.28-0.57-0.4v1.36c-0.03-0.12,0.1-0.26,0.4-0.44C29.31,62.77,29.46,62.9,29.52,62.9z M32.81,59.56l-0.57,1.71
		c0.06,0-0.04-0.13-0.31-0.4c-0.09,0.15-0.23,0.32-0.44,0.53v-1.36c-0.09,0.23-0.23,0.51-0.44,0.83v-0.48
		c0-0.12,0.11-0.29,0.33-0.51c0.22-0.22,0.34-0.39,0.37-0.5L32.81,59.56z M31.84,18.34v-0.22h-0.48v0.22H31.84z M34.13,17.06
		c0-0.12-0.02-0.26-0.07-0.44S34,16.35,34,16.32c0,0.03-0.05,0.13-0.15,0.29c-0.1,0.16-0.15,0.26-0.15,0.29
		c0.06,0,0.16-0.03,0.31-0.09C34.09,16.86,34.13,16.95,34.13,17.06z M36.2,16.01c0,0.09-0.06,0.16-0.18,0.22
		c-0.15-0.18-0.25-0.26-0.31-0.26c0,0.21-0.03,0.34-0.09,0.4c-0.09-0.09-0.13-0.21-0.13-0.35c0,0.15-0.06,0.29-0.18,0.44l0.75,0.31
		C36.15,16.61,36.2,16.36,36.2,16.01z M37.69,16.32c0,0.03-0.09,0.13-0.26,0.31c-0.15-0.26-0.29-0.4-0.44-0.4l-0.97,1.36l0.26-0.26
		c0,0.15,0.02,0.32,0.07,0.53s0.07,0.35,0.07,0.44c0.18-0.18,0.4-0.26,0.66-0.26C37.48,18.03,37.69,17.46,37.69,16.32z M36.72,24.8
		l-0.22-0.09l-0.31,0.62l0.22,0.09L36.72,24.8z M36.72,23.52h-0.26l-0.13,0.75h0.22L36.72,23.52z M36.99,38.95v-0.66h-0.22v0.66
		H36.99z"/>
	<path d="M82.38,1.2l-1.41,4c-0.15-0.03-0.37,0.1-0.66,0.4c0,0.09,0.05,0.24,0.15,0.46c0.1,0.22,0.15,0.39,0.15,0.51
		c-0.09,0.5-0.32,1-0.7,1.49c0.09,0.12,0.13,0.25,0.13,0.4c0,0.29-0.18,0.83-0.53,1.63c-0.29,0.67-0.4,1.1-0.31,1.27l-1.85,5.54
		l-0.7,0.44c0,0.06,0.07,0.19,0.22,0.4c0.15,0.21,0.22,0.35,0.22,0.44l-1.32,4.17c-0.12,0.15-0.32,0.38-0.62,0.7
		c0-0.06,0.07,0.16,0.22,0.66c-1.05,3.69-2.23,7.32-3.52,10.9c-0.26,0.26-0.64,0.6-1.14,1.01c-0.09-0.15-0.22-0.38-0.4-0.7
		l-0.22,0.26c0.06,0.29,0.22,0.72,0.48,1.27c0.03,0.09,0.15,0.15,0.35,0.18l-0.53,0.62c0-0.03,0.13,0.31,0.4,1.01l-1.1,3.74
		c0,4.63-0.02,6.64-0.04,6.02c-0.03,0.03-0.1,0.12-0.22,0.26c0,0.03,0.04,0.12,0.13,0.26s0.13,0.28,0.13,0.4v3.25l-0.7,1.27
		c-0.03,0.26,0.16,0.62,0.57,1.05c-0.29,0.62-0.25,0.98,0.13,1.1v3.69l-0.97,1.23l0.97,2.2v2.59h-1.93V63.6l-0.26-0.22l-0.4,0.4
		c0-0.18-0.1-0.37-0.31-0.57h-0.35l-0.26,1.01l-0.62-0.18v1.23h-1.41l-2.72-0.92c-0.06,0-0.16,0.02-0.31,0.07
		c-0.15,0.04-0.25,0.08-0.31,0.11c-0.06,0.03-0.09,0.26-0.09,0.7h-1.89c0-0.23-0.04-0.44-0.13-0.62h-0.31
		c-0.15,0-0.22,0.07-0.22,0.22c0-0.12-0.09-0.28-0.26-0.48l-0.88,0.57c-0.09-0.09-0.19-0.13-0.31-0.13c-0.38,0-0.63,0.18-0.75,0.53
		h-3.16c0-1.44,0.07-2.5,0.22-3.21c0.12-0.47,0.23-0.95,0.35-1.45c-0.18-0.15-0.37-0.22-0.57-0.22v-18.9L40.59,1.2h17.4l4.26,19.78
		c0.35-1.44,0.84-3.61,1.47-6.53c0.63-2.91,1.11-5.09,1.43-6.53c0.03-0.06,0.29-0.38,0.79-0.97c0.41-0.5,0.62-0.86,0.62-1.1
		c-0.03-0.12-0.06-0.2-0.09-0.26c0.06-0.06,0.18-0.09,0.35-0.09l0.57-0.57c0.29,0,0.54-0.12,0.75-0.37c0.2-0.25,0.23-0.49,0.09-0.73
		c0,0.03,0.22,0.04,0.66,0.04c-0.06,0-0.15,0.04-0.26,0.13l0.31,0.22c0.2-0.18,0.28-0.26,0.22-0.26c0.18,0,0.32-0.16,0.44-0.48
		c-0.18-0.18-0.28-0.23-0.31-0.18c0.53-0.26,0.86-0.6,1.01-1.01c0.03,0,0.15,0.09,0.35,0.26l0.4-0.44c0.09,0.12,0.29,0.18,0.62,0.18
		c0.12,0,0.41-0.11,0.88-0.33c0.47-0.22,0.81-0.36,1.01-0.42c0.06-0.06,0.09-0.18,0.09-0.35H82.38z M54.74,16.8
		c-0.06,0.09-0.12,0.41-0.18,0.97L54.74,16.8z M56.23,58.9v-0.53h-0.22v0.53H56.23z M56.94,58.2c-0.15,0.06-0.22-0.03-0.22-0.26
		c-0.35,0.67-0.53,1.03-0.53,1.05c0-0.09,0.16,0.03,0.48,0.35C57,58.87,57.08,58.49,56.94,58.2z M57.03,54.2l-0.35,0.26
		c-0.09-0.09-0.13-0.19-0.13-0.31l-0.18,1.14L57.03,54.2z M58.43,7.75c0-0.29-0.18-0.53-0.53-0.7c-0.23,0.29-0.5,0.75-0.79,1.36
		c0-0.12,0.03-0.2,0.09-0.26l0.18,0.97c0.03-0.03,0.09-0.12,0.2-0.26c0.1-0.15,0.18-0.25,0.24-0.31c0.06,0.09,0.09,0.23,0.09,0.44
		L58.43,7.75z M59.66,62.5v-0.62c-0.18-0.15-0.38-0.15-0.62,0c-0.18,0.09-0.34,0.18-0.48,0.26c0,0.03,0.09,0.13,0.26,0.31
		c-0.09,0.09-0.13,0.19-0.13,0.31c0.18,0,0.34-0.07,0.48-0.22c0.09,0.06,0.13,0.19,0.13,0.4C59.6,62.65,59.72,62.5,59.66,62.5z
		 M67.09,13.24c-0.12-0.12-0.26-0.22-0.44-0.31s-0.29-0.15-0.35-0.18c-0.35,0.18-0.54,0.26-0.57,0.26c-0.12,0-0.19,0.06-0.22,0.18
		c-0.03,0.12-0.06,0.18-0.09,0.18l0.66,0.31c-0.09,0.09-0.16,0.13-0.22,0.13c0.64,0,1,0.01,1.05,0.04
		C66.91,13.56,66.97,13.36,67.09,13.24z M66.39,5.16c-0.26,0-0.31,0.09-0.13,0.26l-0.7,0.35l0.35-1.1
		C65.9,4.7,66.06,4.86,66.39,5.16z M66.78,7.22l-0.35-0.31c0,0.21-0.12,0.31-0.35,0.31l0.53,0.35C66.61,7.48,66.66,7.37,66.78,7.22z
		 M68.36,29.06v-1.1h-0.22v1.1H68.36z M70.12,31.13l-0.35-0.4c0,0.21-0.1,0.31-0.31,0.31C69.49,31.1,69.71,31.13,70.12,31.13z
		 M71.66,17.15c-0.09-0.21-0.13-0.45-0.13-0.75H71c0,0.18-0.1,0.26-0.31,0.26l0.48,0.66L71.66,17.15z M71.62,33.37h-0.18
		c-0.26,0.47-0.29,0.81-0.09,1.01C71.56,33.71,71.64,33.37,71.62,33.37z"/>
	<path d="M124.79,37.89l-0.18,15.95c-0.29,0-0.44,0.1-0.44,0.31l-0.31-0.44c0.03,0-0.12,0-0.44,0c0-0.18-0.04-0.31-0.13-0.4
		c0.12,0,0.34,0.06,0.66,0.18V52.7c0-0.15-0.16-0.22-0.48-0.22c0-0.03-0.04-0.12-0.13-0.26c-0.09,0.09-0.13,0.22-0.13,0.4
		c-0.06-0.06-0.09-0.25-0.09-0.57c-0.03-0.06-0.09-0.09-0.18-0.09l-0.22,0.35v1.19c0.12,0.09,0.29,0.26,0.53,0.53
		c-0.09-0.09-0.23-0.13-0.44-0.13l-0.26,0.22v0.92c0.03,0.26,0.19,0.38,0.48,0.35c0.12,0.29,0.35,0.48,0.7,0.57v1.54
		c-0.03-0.03,0.16-0.04,0.57-0.04c-0.09,0-0.04,0.1,0.13,0.31c0.18-0.18,0.28-0.34,0.31-0.48v7.65h-1.49c0.06,0,0-0.09-0.18-0.26
		l-0.31,0.26c-0.12-0.09-0.31-0.28-0.57-0.57c-0.18,0.03-0.44,0.22-0.79,0.57c-0.03-0.03-0.14-0.06-0.33-0.09
		c-0.19-0.03-0.36-0.09-0.51-0.18c-0.15,0.18-0.51,0.26-1.1,0.26h-5.14l-0.53-2.07l-2.72,1.63c-0.12,0-0.28-0.09-0.48-0.26
		c-0.03,0-0.11,0.04-0.24,0.11s-0.24,0.11-0.33,0.11l0.4-0.31c0.03-0.03,0-0.09-0.09-0.18h-0.35l-0.48,0.48
		c-0.18,0.21-0.15,0.44,0.09,0.7c-1,0.56-2.62,0.98-4.88,1.27l-2.68,0.13c0-0.03-0.13-0.29-0.4-0.79c-0.26,0.06-0.53,0.1-0.79,0.13
		c-0.32,0.12-0.44,0.34-0.35,0.66c-1.17-0.09-2.62-0.5-4.35-1.23c-0.09,0.09-0.21,0.13-0.35,0.13c-0.09,0-0.29-0.18-0.62-0.53
		l-0.26,0.26c-1.08-0.59-2.48-1.58-4.17-2.99c-2.26-1.88-3.69-5.17-4.31-9.89l-0.13-29.88c0.03,0,0.1-0.02,0.22-0.07
		c0.12-0.04,0.25-0.07,0.4-0.07c-0.09,0-0.04,0.09,0.13,0.26l0.22-0.26v-0.35c-0.18-0.18-0.5-0.25-0.97-0.22v-5.58
		c0,0.03,0.07-0.07,0.22-0.31c-0.06-1.61,0.42-3.72,1.45-6.33c1.96-4.89,6.17-7.95,12.61-9.18l0.26,0.31
		c0.03-0.06,0.07-0.13,0.13-0.22c0.47-0.06,1.11-0.18,1.93-0.35l7.51,0.31c-0.03-0.03-0.12,0.03-0.26,0.18
		c0.15,0.15,0.31,0.22,0.48,0.22c0.06,0,0.09-0.13,0.09-0.4h0.44c-0.18,0,0.34,0.12,1.54,0.35c3.87,0.76,6.81,2.53,8.83,5.32
		c0.09,0.38,0.12,0.98,0.09,1.8l0.35,0.35l0.13-0.13l0.35,0.26c0.12-0.06,0.28-0.09,0.48-0.09l0.97,3.34v0.26
		c0.12,0.09,0.25,0.22,0.4,0.4c0.03,0.38,0.15,0.85,0.35,1.41l0.09,3.25c-0.23-0.21-0.45-0.26-0.66-0.18
		c0.12,0.09,0.18,0.19,0.18,0.31c-0.15-0.09-0.26-0.13-0.35-0.13l-0.35,0.35c0.09,0.09,0.22,0.07,0.4-0.04l-0.26,0.31
		c0.18,0.18,0.31,0.26,0.4,0.26l-0.4,0.31c-0.03,0.06,0,0.13,0.09,0.22c0.7,0,0.92,0.03,0.66,0.09c0.26,0.06,0.32,0.15,0.18,0.26
		v6.68h-2.64l-1.27-0.97c-0.06-0.06-0.13-0.04-0.22,0.04c0.06,0.06,0.11,0.13,0.15,0.22s0.09,0.16,0.15,0.22
		c-0.29,0.18-0.44,0.37-0.44,0.57h-12.26c0.06-0.12,0.09-0.4,0.09-0.83c0-0.15,0.01-0.26,0.04-0.35c0.09,0.06,0.13-0.01,0.13-0.22
		s-0.09-0.23-0.26-0.09v-9.58c0-1.52-0.83-2.29-2.5-2.29c-1.64,0-2.46,0.76-2.46,2.29v10.28h-0.48c-0.15,0.15-0.22,0.35-0.22,0.62
		c0.12,0.15,0.34,0.13,0.66-0.04v3.96c-0.5-0.18-0.86-0.4-1.1-0.66c-0.26,0.18-0.32,0.34-0.18,0.48c-0.06-0.06-0.18-0.01-0.35,0.13
		l0.66,1.58c0.23,0,0.35-0.09,0.35-0.26c0.03,0,0.12,0.05,0.26,0.15c0.15,0.1,0.26,0.15,0.35,0.15l0.18,6.02
		c-0.18-0.21-0.26-0.21-0.26,0l-0.13,1.19c0-0.09-0.04-0.07-0.13,0.04c0-0.03,0.04,0.15,0.13,0.53c0.09,0.09,0.07,0.23-0.04,0.44
		l0.31,7.73c-0.23,0.03-0.35,0.07-0.35,0.13c0-0.03-0.04-0.12-0.13-0.26l-0.22,0.22l0.48,0.62l0.18-0.13v4.22
		c0.03,1.79,0.85,2.68,2.46,2.68c0.56,0,1.1-0.22,1.63-0.66s0.79-0.94,0.79-1.49V43.7h-3.16c-0.03-2.29,0.03-4.86,0.18-7.73
		c0.03-0.06,0.1-0.32,0.22-0.79c0-0.26-0.06-0.37-0.18-0.31c-0.15-0.41-0.22-1.14-0.22-2.2c0.2,0,0.34-0.04,0.4-0.13l-0.13-0.57
		h6.86c0.2,0.21,0.22,0.4,0.04,0.57c0.18,0,0.42,0.07,0.75,0.22l0.53-0.79h8.92l-0.13,0.18l0.22,0.22c0.2-0.26,0.37-0.38,0.48-0.35
		c-0.03-0.03-0.13,0.15-0.31,0.53c0.15,0.12,0.32,0.38,0.53,0.79c0.03-0.06,0.04-0.19,0.04-0.4c0.06,0,0.18,0.09,0.35,0.26
		l0.22-0.22c-0.06-0.23-0.19-0.5-0.4-0.79h-0.18c0.29-0.29,0.57-0.31,0.83-0.04c0,0.06-0.09,0.21-0.26,0.44l0.18,0.18
		c0.03-0.03,0.07-0.09,0.13-0.18c0.26-0.03,0.56-0.19,0.88-0.48v4.26l-0.44-0.26l-0.35,0.35c0.2,0.38,0.25,0.69,0.13,0.92
		c0.12,0.12,0.34,0.1,0.66-0.04C124.63,37.59,124.64,37.78,124.79,37.89z M87.04,18.43l-0.35,0.48
		C86.83,18.79,86.95,18.63,87.04,18.43z M87.04,42.07v-0.62l-0.35,0.4C86.92,41.85,87.04,41.92,87.04,42.07z M87.96,15.66
		l-0.09-0.18l-0.31,0.13v0.22L87.96,15.66z M88.18,12.63c0-0.26-0.13-0.4-0.4-0.4L88.18,12.63z M89.81,11.22
		c-0.06-0.32-0.21-0.78-0.44-1.36c0,0.09-0.03,0.18-0.09,0.26c-0.03-0.15-0.08-0.3-0.15-0.46c-0.07-0.16-0.11-0.27-0.11-0.33
		c-0.09,0-0.19,0.04-0.31,0.13c-0.06-0.06-0.09-0.13-0.09-0.22s-0.03-0.16-0.09-0.22c0,0.21-0.04,0.35-0.13,0.44
		c-0.06-0.09-0.16-0.13-0.31-0.13c0.09,0.09,0.03,0.23-0.18,0.44l0.31,0.31c-0.15,0.12-0.16,0.18-0.04,0.18l0.57,0.48l-0.4,0.31
		c0.09,0.03,0.42-0.19,1.01-0.66C89.37,10.24,89.52,10.52,89.81,11.22z M89.02,15.83c-0.41-0.18-0.62-0.28-0.62-0.31
		c0,0.09-0.04,0.18-0.13,0.26c-0.09-0.09-0.13-0.18-0.13-0.26c-0.03,0.03-0.06,0.1-0.09,0.22c-0.03,0.12-0.07,0.21-0.13,0.26
		c0.44,0.21,0.7,0.26,0.79,0.18c0.03,0.06,0.05,0.15,0.07,0.29c0.01,0.13,0.04,0.23,0.07,0.29C88.84,16.35,88.9,16.04,89.02,15.83z
		 M89.33,14.96v-0.62c0-0.32-0.1-0.66-0.31-1.01c-0.29,0-0.44-0.07-0.44-0.22c0,0.12-0.06,0.23-0.18,0.35
		c-0.15-0.18-0.29-0.26-0.44-0.26v1.45l0.57,0.44C88.74,15,89,14.96,89.33,14.96z M89.33,57.8l-0.66-0.22c0,0.03,0,0.22,0,0.57
		C88.84,58.09,89.06,57.98,89.33,57.8z M91.21,7.92c-0.15-0.29-0.19-0.56-0.13-0.79c-0.29,0-0.44-0.09-0.44-0.26
		c0,0.15-0.04,0.26-0.13,0.35c-0.09-0.09-0.15-0.18-0.18-0.26c0,0.21-0.06,0.37-0.18,0.48C90.45,7.56,90.8,7.72,91.21,7.92z
		 M95.65,52.13c-0.41-0.18-0.62-0.28-0.62-0.31c0,0.09-0.04,0.18-0.13,0.26c-0.09-0.09-0.13-0.18-0.13-0.26
		c-0.03,0.03-0.06,0.11-0.09,0.24c-0.03,0.13-0.07,0.21-0.13,0.24c0.15,0,0.32,0.1,0.53,0.31c0-0.09,0.03-0.18,0.09-0.26l0.31,0.26
		C95.48,52.5,95.54,52.34,95.65,52.13z M98.16,18.38c-0.18-0.35-0.31-0.64-0.4-0.88c0.03-0.15,0.04-0.32,0.04-0.53
		c0.15-0.15,0.2-0.4,0.18-0.75c-0.06,0.03-0.1,0.09-0.11,0.18c-0.02,0.09-0.04,0.16-0.07,0.22l-0.92-0.22l0.31-0.31
		c-0.15,0.06-0.29,0.15-0.44,0.29c-0.15,0.13-0.18,0.2-0.09,0.2c0,0.09-0.07,0.18-0.22,0.29c-0.15,0.1-0.22,0.2-0.22,0.29
		c0,1.11,0.04,1.52,0.13,1.23c0.38,0,0.62,0.03,0.7,0.09c-0.12,0.12-0.12,0.28,0,0.48C97.24,18.69,97.6,18.5,98.16,18.38z
		 M98.99,29.81c-0.18-0.38-0.42-0.6-0.75-0.66c0,0.35-0.07,0.69-0.22,1.01c-0.21-0.15-0.21-0.31,0-0.48
		c-0.09-0.09-0.22-0.07-0.4,0.04l-0.18-1.05c0.03,0,0.07-0.05,0.13-0.15c0.06-0.1,0.17-0.15,0.33-0.15c0.16,0,0.24-0.04,0.24-0.13
		c0.23,0,0.44,0.15,0.62,0.44C98.77,28.87,98.85,29.25,98.99,29.81z M99.52,19c-0.5-0.15-0.94-0.16-1.32-0.04
		c-0.06,0.12-0.26,0.32-0.62,0.62c0.23,0.44,0.31,0.75,0.22,0.92c-0.09-0.09-0.15-0.18-0.18-0.26v1.49c0.29-0.15,0.63-0.1,1.01,0.13
		l0.18-0.75c-0.09-0.26-0.22-0.67-0.4-1.23c0.15-0.15,0.34-0.31,0.59-0.48C99.26,19.22,99.43,19.09,99.52,19z M98.2,17.5l-0.22-0.22
		l-0.13,0.13l0.18,0.22L98.2,17.5z M98.77,14.16h-0.62c0,0.18,0.07,0.31,0.22,0.4C98.38,14.35,98.51,14.22,98.77,14.16z
		 M100.22,24.45l-0.31-0.75c-0.53-0.56-0.79-0.78-0.79-0.66l0.53-0.57c-0.21-0.09-0.45-0.25-0.75-0.48l-0.57,1.41
		c-0.09-0.09-0.09-0.19,0-0.31v2.2c0.09,0,0.15-0.01,0.2-0.04s0.12-0.04,0.24-0.04c0.2,0,0.28,0.22,0.22,0.66
		c0.03,0,0.09-0.04,0.18-0.13s0.19-0.13,0.31-0.13l0.44-0.31C99.94,25.11,100.05,24.83,100.22,24.45z M98.82,18.29l-0.4,0.35
		C98.69,18.65,98.82,18.53,98.82,18.29z M99.52,27.44l-0.83-0.31c-0.09-0.18-0.18,0.12-0.26,0.88l0.35,0.35L99.52,27.44z
		 M101.45,9.99V9.2c-0.44-0.03-0.66-0.07-0.66-0.13c-0.29,0.06-0.41,0.26-0.35,0.62c0.06,0.35-0.04,0.64-0.31,0.88
		c0.03,0.03,0.04-0.18,0.04-0.62h-1.19c0-0.09-0.15,0.38-0.44,1.41c0.2,0.09,0.31,0.31,0.31,0.66c0.18-0.03,0.4-0.03,0.66,0
		c-0.15,0.15-0.22,0.31-0.22,0.48c0.03-0.06,0.23-0.23,0.62-0.53c0.29-0.23,0.44-0.49,0.44-0.77c0-0.28,0.16-0.64,0.48-1.08
		c0.09,0.09,0.19,0.13,0.31,0.13c-0.18-0.38-0.23-0.6-0.18-0.66C101.23,9.86,101.4,9.99,101.45,9.99z M99.17,12.49l-0.31,0.48
		c0.06,0,0.14-0.07,0.24-0.2C99.21,12.65,99.23,12.55,99.17,12.49z M100.27,23.79l-0.18-0.44l-0.18,0.09l0.13,0.35H100.27z
		 M100.4,24.32v-0.48h-0.22v0.48H100.4z M100.88,65.8h-0.35v-0.26h0.35V65.8z M103.17,30.25v-0.48h-0.26v0.48H103.17z M113.76,10.17
		l-0.7-0.13l0.18,0.48C113.35,10.52,113.52,10.4,113.76,10.17z M116.88,63.56l-0.79-0.13l0.18,0.66h0.62V63.56z M122.15,51.43
		c-0.29-0.12-0.6-0.18-0.92-0.18v0.66c0.32,0,0.51-0.03,0.57-0.09c0.18,0.15,0.25,0.22,0.22,0.22
		C122.02,51.75,122.06,51.55,122.15,51.43z M121.84,64.26v-0.22h-0.48v0.22H121.84z M123.47,33.9l-0.88-0.57
		c0,0.21-0.03,0.34-0.09,0.4c-0.09-0.09-0.16-0.12-0.22-0.09c0-0.12,0.02-0.21,0.07-0.29c0.04-0.07,0.07-0.12,0.07-0.15
		c-0.15,0-0.32,0.1-0.53,0.31c0.12,0.29,0.12,0.72,0,1.27h0.83l-0.44,0.44c0.09,0,0.25-0.07,0.48-0.22c0.23-0.15,0.4-0.21,0.48-0.18
		C123.22,34.58,123.29,34.28,123.47,33.9z M122.99,8.67l-0.7-0.18C122.58,8.79,122.81,8.85,122.99,8.67z M124.57,55.25l-0.66,0.44
		l-0.31-0.44c0,0.06-0.05,0.13-0.15,0.2c-0.1,0.07-0.15,0.14-0.15,0.2c0.41,0.18,0.62,0.28,0.62,0.31c0-0.09,0.04-0.13,0.13-0.13
		c0.18,0.18,0.22,0.26,0.13,0.26c0.12,0,0.18-0.07,0.18-0.22s0.01-0.22,0.04-0.22c0.09,0.09,0.15,0.19,0.18,0.31
		C124.8,55.72,124.8,55.49,124.57,55.25z M124.61,53.71c-0.09-0.12-0.26-0.28-0.53-0.48C124.32,53.2,124.5,53.36,124.61,53.71z
		 M124.61,18.87v-0.22h-0.35v0.22H124.61z M124.57,58.55v-0.53h-0.26v0.53H124.57z"/>
	<path d="M167.15,37.89l-0.18,15.95c-0.29,0-0.44,0.1-0.44,0.31l-0.31-0.44c0.03,0-0.12,0-0.44,0c0-0.18-0.04-0.31-0.13-0.4
		c0.12,0,0.34,0.06,0.66,0.18V52.7c0-0.15-0.16-0.22-0.48-0.22c0-0.03-0.04-0.12-0.13-0.26c-0.09,0.09-0.13,0.22-0.13,0.4
		c-0.06-0.06-0.09-0.25-0.09-0.57c-0.03-0.06-0.09-0.09-0.18-0.09l-0.22,0.35v1.19c0.12,0.09,0.29,0.26,0.53,0.53
		c-0.09-0.09-0.23-0.13-0.44-0.13l-0.26,0.22v0.92c0.03,0.26,0.19,0.38,0.48,0.35c0.12,0.29,0.35,0.48,0.7,0.57v1.54
		c-0.03-0.03,0.16-0.04,0.57-0.04c-0.09,0-0.04,0.1,0.13,0.31c0.18-0.18,0.28-0.34,0.31-0.48v7.65h-1.49c0.06,0,0-0.09-0.18-0.26
		l-0.31,0.26c-0.12-0.09-0.31-0.28-0.57-0.57c-0.18,0.03-0.44,0.22-0.79,0.57c-0.03-0.03-0.14-0.06-0.33-0.09
		c-0.19-0.03-0.36-0.09-0.51-0.18c-0.15,0.18-0.51,0.26-1.1,0.26h-5.14l-0.53-2.07l-2.72,1.63c-0.12,0-0.28-0.09-0.48-0.26
		c-0.03,0-0.11,0.04-0.24,0.11s-0.24,0.11-0.33,0.11l0.4-0.31c0.03-0.03,0-0.09-0.09-0.18h-0.35l-0.48,0.48
		c-0.18,0.21-0.15,0.44,0.09,0.7c-1,0.56-2.62,0.98-4.88,1.27l-2.68,0.13c0-0.03-0.13-0.29-0.4-0.79c-0.26,0.06-0.53,0.1-0.79,0.13
		c-0.32,0.12-0.44,0.34-0.35,0.66c-1.17-0.09-2.62-0.5-4.35-1.23c-0.09,0.09-0.21,0.13-0.35,0.13c-0.09,0-0.29-0.18-0.62-0.53
		l-0.26,0.26c-1.08-0.59-2.48-1.58-4.17-2.99c-2.26-1.88-3.69-5.17-4.31-9.89l-0.13-29.88c0.03,0,0.1-0.02,0.22-0.07
		c0.12-0.04,0.25-0.07,0.4-0.07c-0.09,0-0.04,0.09,0.13,0.26l0.22-0.26v-0.35c-0.18-0.18-0.5-0.25-0.97-0.22v-5.58
		c0,0.03,0.07-0.07,0.22-0.31c-0.06-1.61,0.42-3.72,1.45-6.33c1.96-4.89,6.17-7.95,12.61-9.18l0.26,0.31
		c0.03-0.06,0.07-0.13,0.13-0.22c0.47-0.06,1.11-0.18,1.93-0.35l7.51,0.31c-0.03-0.03-0.12,0.03-0.26,0.18
		c0.15,0.15,0.31,0.22,0.48,0.22c0.06,0,0.09-0.13,0.09-0.4h0.44c-0.18,0,0.34,0.12,1.54,0.35c3.87,0.76,6.81,2.53,8.83,5.32
		c0.09,0.38,0.12,0.98,0.09,1.8l0.35,0.35l0.13-0.13l0.35,0.26c0.12-0.06,0.28-0.09,0.48-0.09l0.97,3.34v0.26
		c0.12,0.09,0.25,0.22,0.4,0.4c0.03,0.38,0.15,0.85,0.35,1.41l0.09,3.25c-0.23-0.21-0.45-0.26-0.66-0.18
		c0.12,0.09,0.18,0.19,0.18,0.31c-0.15-0.09-0.26-0.13-0.35-0.13l-0.35,0.35c0.09,0.09,0.22,0.07,0.4-0.04l-0.26,0.31
		c0.18,0.18,0.31,0.26,0.4,0.26l-0.4,0.31c-0.03,0.06,0,0.13,0.09,0.22c0.7,0,0.92,0.03,0.66,0.09c0.26,0.06,0.32,0.15,0.18,0.26
		v6.68h-2.64l-1.27-0.97c-0.06-0.06-0.13-0.04-0.22,0.04c0.06,0.06,0.11,0.13,0.15,0.22s0.09,0.16,0.15,0.22
		c-0.29,0.18-0.44,0.37-0.44,0.57h-12.26c0.06-0.12,0.09-0.4,0.09-0.83c0-0.15,0.01-0.26,0.04-0.35c0.09,0.06,0.13-0.01,0.13-0.22
		s-0.09-0.23-0.26-0.09v-9.58c0-1.52-0.83-2.29-2.5-2.29c-1.64,0-2.46,0.76-2.46,2.29v10.28H145c-0.15,0.15-0.22,0.35-0.22,0.62
		c0.12,0.15,0.34,0.13,0.66-0.04v3.96c-0.5-0.18-0.86-0.4-1.1-0.66c-0.26,0.18-0.32,0.34-0.18,0.48c-0.06-0.06-0.18-0.01-0.35,0.13
		l0.66,1.58c0.23,0,0.35-0.09,0.35-0.26c0.03,0,0.12,0.05,0.26,0.15c0.15,0.1,0.26,0.15,0.35,0.15l0.18,6.02
		c-0.18-0.21-0.26-0.21-0.26,0l-0.13,1.19c0-0.09-0.04-0.07-0.13,0.04c0-0.03,0.04,0.15,0.13,0.53c0.09,0.09,0.07,0.23-0.04,0.44
		l0.31,7.73c-0.23,0.03-0.35,0.07-0.35,0.13c0-0.03-0.04-0.12-0.13-0.26l-0.22,0.22l0.48,0.62l0.18-0.13v4.22
		c0.03,1.79,0.85,2.68,2.46,2.68c0.56,0,1.1-0.22,1.63-0.66s0.79-0.94,0.79-1.49V43.7h-3.16c-0.03-2.29,0.03-4.86,0.18-7.73
		c0.03-0.06,0.1-0.32,0.22-0.79c0-0.26-0.06-0.37-0.18-0.31c-0.15-0.41-0.22-1.14-0.22-2.2c0.2,0,0.34-0.04,0.4-0.13l-0.13-0.57
		h6.86c0.2,0.21,0.22,0.4,0.04,0.57c0.18,0,0.42,0.07,0.75,0.22l0.53-0.79h8.92l-0.13,0.18l0.22,0.22c0.2-0.26,0.37-0.38,0.48-0.35
		c-0.03-0.03-0.13,0.15-0.31,0.53c0.15,0.12,0.32,0.38,0.53,0.79c0.03-0.06,0.04-0.19,0.04-0.4c0.06,0,0.18,0.09,0.35,0.26
		l0.22-0.22c-0.06-0.23-0.19-0.5-0.4-0.79h-0.18c0.29-0.29,0.57-0.31,0.83-0.04c0,0.06-0.09,0.21-0.26,0.44l0.18,0.18
		c0.03-0.03,0.07-0.09,0.13-0.18c0.26-0.03,0.56-0.19,0.88-0.48v4.26l-0.44-0.26l-0.35,0.35c0.2,0.38,0.25,0.69,0.13,0.92
		c0.12,0.12,0.34,0.1,0.66-0.04C166.99,37.59,167.01,37.78,167.15,37.89z M129.4,18.43l-0.35,0.48
		C129.2,18.79,129.32,18.63,129.4,18.43z M129.4,42.07v-0.62l-0.35,0.4C129.29,41.85,129.4,41.92,129.4,42.07z M130.33,15.66
		l-0.09-0.18l-0.31,0.13v0.22L130.33,15.66z M130.55,12.63c0-0.26-0.13-0.4-0.4-0.4L130.55,12.63z M132.17,11.22
		c-0.06-0.32-0.21-0.78-0.44-1.36c0,0.09-0.03,0.18-0.09,0.26c-0.03-0.15-0.08-0.3-0.15-0.46c-0.07-0.16-0.11-0.27-0.11-0.33
		c-0.09,0-0.19,0.04-0.31,0.13c-0.06-0.06-0.09-0.13-0.09-0.22s-0.03-0.16-0.09-0.22c0,0.21-0.04,0.35-0.13,0.44
		c-0.06-0.09-0.16-0.13-0.31-0.13c0.09,0.09,0.03,0.23-0.18,0.44l0.31,0.31c-0.15,0.12-0.16,0.18-0.04,0.18l0.57,0.48l-0.4,0.31
		c0.09,0.03,0.42-0.19,1.01-0.66C131.73,10.24,131.88,10.52,132.17,11.22z M131.38,15.83c-0.41-0.18-0.62-0.28-0.62-0.31
		c0,0.09-0.04,0.18-0.13,0.26c-0.09-0.09-0.13-0.18-0.13-0.26c-0.03,0.03-0.06,0.1-0.09,0.22c-0.03,0.12-0.07,0.21-0.13,0.26
		c0.44,0.21,0.7,0.26,0.79,0.18c0.03,0.06,0.05,0.15,0.07,0.29c0.01,0.13,0.04,0.23,0.07,0.29
		C131.21,16.35,131.26,16.04,131.38,15.83z M131.69,14.96v-0.62c0-0.32-0.1-0.66-0.31-1.01c-0.29,0-0.44-0.07-0.44-0.22
		c0,0.12-0.06,0.23-0.18,0.35c-0.15-0.18-0.29-0.26-0.44-0.26v1.45l0.57,0.44C131.1,15,131.37,14.96,131.69,14.96z M131.69,57.8
		l-0.66-0.22c0,0.03,0,0.22,0,0.57C131.21,58.09,131.42,57.98,131.69,57.8z M133.58,7.92c-0.15-0.29-0.19-0.56-0.13-0.79
		c-0.29,0-0.44-0.09-0.44-0.26c0,0.15-0.04,0.26-0.13,0.35c-0.09-0.09-0.15-0.18-0.18-0.26c0,0.21-0.06,0.37-0.18,0.48
		C132.82,7.56,133.17,7.72,133.58,7.92z M138.02,52.13c-0.41-0.18-0.62-0.28-0.62-0.31c0,0.09-0.04,0.18-0.13,0.26
		c-0.09-0.09-0.13-0.18-0.13-0.26c-0.03,0.03-0.06,0.11-0.09,0.24c-0.03,0.13-0.07,0.21-0.13,0.24c0.15,0,0.32,0.1,0.53,0.31
		c0-0.09,0.03-0.18,0.09-0.26l0.31,0.26C137.84,52.5,137.9,52.34,138.02,52.13z M140.52,18.38c-0.18-0.35-0.31-0.64-0.4-0.88
		c0.03-0.15,0.04-0.32,0.04-0.53c0.15-0.15,0.2-0.4,0.18-0.75c-0.06,0.03-0.1,0.09-0.11,0.18c-0.02,0.09-0.04,0.16-0.07,0.22
		l-0.92-0.22l0.31-0.31c-0.15,0.06-0.29,0.15-0.44,0.29c-0.15,0.13-0.18,0.2-0.09,0.2c0,0.09-0.07,0.18-0.22,0.29
		c-0.15,0.1-0.22,0.2-0.22,0.29c0,1.11,0.04,1.52,0.13,1.23c0.38,0,0.62,0.03,0.7,0.09c-0.12,0.12-0.12,0.28,0,0.48
		C139.6,18.69,139.96,18.5,140.52,18.38z M141.36,29.81c-0.18-0.38-0.42-0.6-0.75-0.66c0,0.35-0.07,0.69-0.22,1.01
		c-0.21-0.15-0.21-0.31,0-0.48c-0.09-0.09-0.22-0.07-0.4,0.04l-0.18-1.05c0.03,0,0.07-0.05,0.13-0.15c0.06-0.1,0.17-0.15,0.33-0.15
		c0.16,0,0.24-0.04,0.24-0.13c0.23,0,0.44,0.15,0.62,0.44C141.14,28.87,141.21,29.25,141.36,29.81z M141.88,19
		c-0.5-0.15-0.94-0.16-1.32-0.04c-0.06,0.12-0.26,0.32-0.62,0.62c0.23,0.44,0.31,0.75,0.22,0.92c-0.09-0.09-0.15-0.18-0.18-0.26
		v1.49c0.29-0.15,0.63-0.1,1.01,0.13l0.18-0.75c-0.09-0.26-0.22-0.67-0.4-1.23c0.15-0.15,0.34-0.31,0.59-0.48
		C141.63,19.22,141.8,19.09,141.88,19z M140.57,17.5l-0.22-0.22l-0.13,0.13l0.18,0.22L140.57,17.5z M141.14,14.16h-0.62
		c0,0.18,0.07,0.31,0.22,0.4C140.74,14.35,140.87,14.22,141.14,14.16z M142.59,24.45l-0.31-0.75c-0.53-0.56-0.79-0.78-0.79-0.66
		l0.53-0.57c-0.21-0.09-0.45-0.25-0.75-0.48l-0.57,1.41c-0.09-0.09-0.09-0.19,0-0.31v2.2c0.09,0,0.15-0.01,0.2-0.04
		s0.12-0.04,0.24-0.04c0.2,0,0.28,0.22,0.22,0.66c0.03,0,0.09-0.04,0.18-0.13s0.19-0.13,0.31-0.13l0.44-0.31
		C142.31,25.11,142.41,24.83,142.59,24.45z M141.18,18.29l-0.4,0.35C141.05,18.65,141.18,18.53,141.18,18.29z M141.88,27.44
		l-0.83-0.31c-0.09-0.18-0.18,0.12-0.26,0.88l0.35,0.35L141.88,27.44z M143.82,9.99V9.2c-0.44-0.03-0.66-0.07-0.66-0.13
		c-0.29,0.06-0.41,0.26-0.35,0.62c0.06,0.35-0.04,0.64-0.31,0.88c0.03,0.03,0.04-0.18,0.04-0.62h-1.19c0-0.09-0.15,0.38-0.44,1.41
		c0.2,0.09,0.31,0.31,0.31,0.66c0.18-0.03,0.4-0.03,0.66,0c-0.15,0.15-0.22,0.31-0.22,0.48c0.03-0.06,0.23-0.23,0.62-0.53
		c0.29-0.23,0.44-0.49,0.44-0.77c0-0.28,0.16-0.64,0.48-1.08c0.09,0.09,0.19,0.13,0.31,0.13c-0.18-0.38-0.23-0.6-0.18-0.66
		C143.6,9.86,143.76,9.99,143.82,9.99z M141.53,12.49l-0.31,0.48c0.06,0,0.14-0.07,0.24-0.2C141.57,12.65,141.59,12.55,141.53,12.49
		z M142.63,23.79l-0.18-0.44l-0.18,0.09l0.13,0.35H142.63z M142.76,24.32v-0.48h-0.22v0.48H142.76z M143.25,65.8h-0.35v-0.26h0.35
		V65.8z M145.53,30.25v-0.48h-0.26v0.48H145.53z M156.12,10.17l-0.7-0.13l0.18,0.48C155.71,10.52,155.89,10.4,156.12,10.17z
		 M159.24,63.56l-0.79-0.13l0.18,0.66h0.62V63.56z M164.52,51.43c-0.29-0.12-0.6-0.18-0.92-0.18v0.66c0.32,0,0.51-0.03,0.57-0.09
		c0.18,0.15,0.25,0.22,0.22,0.22C164.38,51.75,164.43,51.55,164.52,51.43z M164.21,64.26v-0.22h-0.48v0.22H164.21z M165.83,33.9
		l-0.88-0.57c0,0.21-0.03,0.34-0.09,0.4c-0.09-0.09-0.16-0.12-0.22-0.09c0-0.12,0.02-0.21,0.07-0.29c0.04-0.07,0.07-0.12,0.07-0.15
		c-0.15,0-0.32,0.1-0.53,0.31c0.12,0.29,0.12,0.72,0,1.27h0.83l-0.44,0.44c0.09,0,0.25-0.07,0.48-0.22c0.23-0.15,0.4-0.21,0.48-0.18
		C165.58,34.58,165.66,34.28,165.83,33.9z M165.35,8.67l-0.7-0.18C164.94,8.79,165.17,8.85,165.35,8.67z M166.93,55.25l-0.66,0.44
		l-0.31-0.44c0,0.06-0.05,0.13-0.15,0.2c-0.1,0.07-0.15,0.14-0.15,0.2c0.41,0.18,0.62,0.28,0.62,0.31c0-0.09,0.04-0.13,0.13-0.13
		c0.18,0.18,0.22,0.26,0.13,0.26c0.12,0,0.18-0.07,0.18-0.22s0.01-0.22,0.04-0.22c0.09,0.09,0.15,0.19,0.18,0.31
		C167.17,55.72,167.17,55.49,166.93,55.25z M166.98,53.71c-0.09-0.12-0.26-0.28-0.53-0.48C166.68,53.2,166.86,53.36,166.98,53.71z
		 M166.98,18.87v-0.22h-0.35v0.22H166.98z M166.93,58.55v-0.53h-0.26v0.53H166.93z"/>
	<path d="M209.47,25.77c-0.23,0.12-0.62,0.26-1.14,0.44l0.79,1.36c0.18,0.09,0.28,0.04,0.31-0.13v1.49l-2.64,6.28l-0.57-0.26
		c-0.09,0.06-0.13,0.23-0.13,0.53c0-0.09-0.09-0.13-0.26-0.13c0,0.09,0.05,0.19,0.15,0.31c0.1,0.12,0.15,0.19,0.15,0.22
		c-0.56,0.53-1.41,1.36-2.55,2.5c-0.21,0.21-0.38,0.31-0.53,0.31l-0.57-0.13c-0.18,0.15-0.26,0.32-0.26,0.53l-0.66-0.13
		c-0.15,0.06-0.44,0.28-0.88,0.66c-0.15,0-0.38,0.03-0.7,0.09c-0.41,0.47-1.05,0.79-1.93,0.97c-0.73,0.12-1.48,0.25-2.24,0.4
		l-3.6,0.4c-0.12,0-0.28-0.09-0.48-0.26c-0.12,0-0.18,0.09-0.18,0.26l-0.83-0.4c-0.21,0.15-0.45,0.15-0.75,0
		c0.03-0.03,0.04,0.09,0.04,0.35h-0.66c0-0.06,0.04-0.16,0.13-0.31c-0.03-0.29-0.13-0.44-0.31-0.44c-0.29-0.03-0.48-0.09-0.57-0.18
		c-0.09,0.09-0.13,0.18-0.13,0.26c-0.12,0-0.26-0.09-0.44-0.26c-0.06,0.06-0.09,0.19-0.09,0.4c-0.35,0-0.59,0.03-0.7,0.09
		c0.09,0.06,0.2,0.09,0.35,0.09v9.4c-0.18-0.18-0.25-0.26-0.22-0.26c-0.26,0.23-0.4,0.48-0.4,0.75c0,0.32,0.23,0.6,0.7,0.83v6.86
		c0.23,0,0.07-0.13-0.48-0.4c-0.18,0.32-0.21,0.6-0.09,0.83c-0.12-0.09-0.22-0.13-0.31-0.13L186,60.48c0,0.06,0.13,0.35,0.4,0.88
		h0.26v0.48c-0.03,0-0.22-0.09-0.57-0.26l-0.62,0.83l0.13-0.48c-0.06-0.06-0.13-0.09-0.22-0.09l-0.22,0.26
		c0.06,0.21,0.28,0.51,0.66,0.92v2.29h-0.92c0.03,0-0.06-0.09-0.26-0.26c-0.06,0-0.18,0.09-0.35,0.26h-1.54c-0.09,0-0.21,0-0.37,0
		c-0.16,0-0.33,0-0.51,0c0-0.21-0.13-0.44-0.4-0.7c-0.21,0.23-0.31,0.32-0.31,0.26l-0.48-0.26c-0.15,0.18-0.13,0.35,0.04,0.53
		l-0.83,0.18c-0.15,0-0.32-0.09-0.53-0.26c-0.12,0-0.18,0.09-0.18,0.26h-0.4c-0.06-0.03-0.1-0.08-0.11-0.15
		c-0.02-0.07-0.07-0.11-0.15-0.11c-0.12,0-0.25,0.04-0.4,0.13c-0.15,0.09-0.28,0.13-0.4,0.13h-5.05c0.03,0-0.04-0.09-0.22-0.26
		c-0.18,0.18-0.31,0.26-0.4,0.26c0.06-0.64,0.22-1.17,0.48-1.58l-0.53-1.05c-0.18,0-0.26,0.1-0.26,0.31c-0.03-0.47,0-0.86,0.09-1.19
		c0.06,0,0.15-0.04,0.26-0.13c-0.32-0.15-0.57-0.37-0.75-0.66c-0.09,0.03-0.13,0.09-0.13,0.18c0.26-1.11,0.29-1.73,0.09-1.85
		c-0.03-0.12,0.1-0.32,0.4-0.62c-0.12-0.35-0.32-0.51-0.62-0.48v-1.23c-0.06,0.12-0.16,0.35-0.31,0.7c-0.03-0.23,0.04-0.5,0.22-0.79
		l-0.26-0.83v-4.04l0.53-1.89l-0.53-1.32l0.53-2.42c-0.06-0.09-0.23-0.13-0.53-0.13v-4.22l0.53-2.55l-0.53-1.71v-4.04
		c0-0.15,0.07-0.34,0.22-0.57c-0.06-0.44,0.09-0.95,0.44-1.54c-0.06-0.03-0.13-0.04-0.22-0.04c-0.18-0.5-0.32-1.03-0.44-1.58v-8.7
		c0.23,0.03,0.35,0.07,0.35,0.13l0.18-0.18c-0.06-0.09-0.21-0.12-0.44-0.09v-4.97l0.44-0.26c-0.03-0.03-0.21-0.04-0.53-0.04V5.95
		l0.53-0.22c-0.12-0.06-0.29-0.15-0.53-0.26V1.6h4.92c0.03,0.03,0.04,0.23,0.04,0.62H177c0-0.06-0.02-0.13-0.07-0.22
		s-0.07-0.15-0.07-0.18l0.48-0.18l0.97,0.53c0.03,0,0.15-0.22,0.35-0.66h2.07c-0.03,0,0.04,0.09,0.22,0.26
		c0.03,0,0.06-0.04,0.09-0.13c0.03-0.09,0.12-0.13,0.26-0.13h0.75c-0.03,0,0.31,0.22,1.01,0.66h0.35c0.15-0.15,0.13-0.31-0.04-0.48
		l1.8-0.18c0.59,0,1.03,0.13,1.32,0.4c0.15-0.15,0.18-0.26,0.09-0.35h2.5c-0.15,0-0.34,0.04-0.57,0.13l6.46-0.18
		c0.03,0,0.09,0.04,0.18,0.13s0.19,0.13,0.31,0.13c0.09,0,0.23-0.02,0.44-0.07c0.2-0.04,0.41-0.07,0.62-0.07l0.31,0.57
		c0.2,0.26,0.45,0.4,0.75,0.4l0.26-0.7c0.06,0,0.18,0.09,0.35,0.26c-0.06-0.09,0.03-0.13,0.26-0.13c0.76,0,2.05,0.47,3.87,1.41
		c1.93,0.97,2.87,1.7,2.81,2.2c0.23,0,0.75,0.44,1.54,1.32c0,0.09-0.05,0.24-0.15,0.46c-0.1,0.22-0.15,0.37-0.15,0.46
		c0.06-0.2,0.01-0.48-0.13-0.83L206,7.66l0.92,1.45c0.09-0.03,0.18-0.04,0.26-0.04c-0.18,0-0.26,0.12-0.26,0.35
		c-0.03-0.06-0.09-0.16-0.18-0.31l-0.22,0.22l0.83,1.14c-0.09-0.03-0.15-0.04-0.18-0.04c0.12,0,0.09,0.28-0.09,0.83l1.32,0.92
		c0-0.15,0.06-0.34,0.18-0.57l0.75,2.68v7.25l-0.83,1.05l0.97,1.41V25.77z M171.06,22.56v-0.35h-0.22v0.35H171.06z M171.06,35.61
		v-0.53h-0.22v0.53H171.06z M176.82,23.7c-0.26,0-0.31,0.18-0.13,0.53C176.78,24.17,176.82,23.99,176.82,23.7z M182.09,29.54
		l-0.79,0.57v0.53L182.09,29.54z M182.67,59.43c-0.26-0.06-0.62-0.18-1.05-0.35c0,0.12-0.05,0.25-0.15,0.4
		c-0.1,0.15-0.15,0.23-0.15,0.26l0.79,0.57c0-0.23,0.07-0.31,0.22-0.22C182.25,59.94,182.37,59.72,182.67,59.43z M183.1,23.88
		c-0.06-0.03-0.32-0.04-0.79-0.04l-0.35,0.35c0.38,0.44,0.42,0.79,0.13,1.05L183.1,23.88z M184.16,54.77
		c-0.15-0.32-0.37-0.48-0.66-0.48c0.06,0.03,0.18,0.1,0.35,0.22S184.13,54.71,184.16,54.77z M184.38,54.29l-0.22-0.22l-0.13,0.13
		l0.18,0.22L184.38,54.29z M185.79,64.13l-0.18,0.4l-0.22-0.09l0.18-0.35L185.79,64.13z M186.97,7.66
		c-0.06-0.15-0.18-0.35-0.35-0.62c-0.21,0-0.44,0.04-0.7,0.13c-0.09,0-0.23,0.06-0.44,0.18v0.66c0.2,0,0.35,0.04,0.44,0.13
		L186.97,7.66z M186.62,58.68h-0.22l-0.18,0.48l0.22,0.09L186.62,58.68z M186.75,59.65l-0.31,0.97l-0.22-0.09l0.31-0.88H186.75z
		 M193.08,15l-0.4-0.53c0.18-0.21,0.2-0.37,0.09-0.48c-0.18,0-0.26-0.09-0.26-0.26l-0.31,0.26l-1.27-1.1l-0.13,0.13l-0.83-0.57
		c-0.26,0.12-0.4,0.07-0.4-0.13l-0.31,0.26c-0.09-0.09-0.13-0.18-0.13-0.26c0,0.18-0.06,0.32-0.18,0.44h-1.41
		c0.26,0.56,0.18,0.92-0.26,1.1v2.02c0.12,0.03,0.25,0.16,0.4,0.4v3.87c-0.18,0.18-0.35,0.26-0.53,0.26l0.53,1.27v4.7
		c0,0.26-0.12,0.48-0.35,0.66c-0.09-0.12-0.13-0.23-0.13-0.35c0,0.03-0.04,0.05-0.11,0.07c-0.07,0.02-0.11,0.08-0.11,0.2
		s0.23,0.41,0.7,0.88v1.85c0,0.12-0.04,0.2-0.13,0.24c-0.09,0.04-0.13,0.08-0.13,0.11c0.2,0.12,0.41,0.28,0.62,0.48
		c0.15-0.18,0.31-0.32,0.48-0.44h1.32l1.1-0.57c0.18,0.21,0.47,0.31,0.88,0.31c0.03-0.15,0.1-0.29,0.22-0.44
		c0.06-0.06,0.18-0.18,0.35-0.35l-0.4-0.4l0.79-1.49v-1.93h0.22v-2.86c-0.12-0.06-0.23-0.22-0.35-0.48V16.1L193.08,15z
		 M190.49,35.08h-0.44c-0.03,0.73-0.02,1.14,0.04,1.23C190.18,36.05,190.31,35.64,190.49,35.08z M191.23,34.77
		c0-0.09-0.04-0.22-0.13-0.4C190.93,34.38,190.97,34.51,191.23,34.77z M193.39,24.1v-0.53h-0.22v0.53H193.39z M195.76,31.13
		l-0.18-0.09l-0.18,0.35l0.18,0.09L195.76,31.13z M198.53,24.23v-0.79h-0.22v0.79H198.53z M199.98,15.35l-0.13-0.53
		c-0.15,0-0.22,0.13-0.22,0.4C199.72,15.22,199.83,15.26,199.98,15.35z M200.68,32.18l-0.66,0.13c0,0.35,0.18,0.53,0.53,0.53
		L200.68,32.18z M204.33,21.46c0.03-0.18,0.01-0.45-0.04-0.83c-0.03,0.03-0.29,0.04-0.79,0.04c0,0.03-0.04,0.08-0.13,0.15
		s-0.13,0.14-0.13,0.2l0.44,0.44H204.33z M204.59,21.99c-0.18-0.09-0.5-0.07-0.97,0.04c0.09,0.03,0.22,0.1,0.4,0.22
		s0.32,0.18,0.44,0.18C204.46,22.13,204.51,21.99,204.59,21.99z M208.81,11.44h-0.22l-0.13-0.31l0.18-0.09L208.81,11.44z"/>
	<path d="M252.36,65.18h-16.74l-1.49-15.07h-5.58l-2.37,15.07h-14.5l10.81-63.68h0.92l1.32,1.1l-0.13-0.13l-0.48,0.22
		c0,0.15,0.03,0.25,0.09,0.31c0.12-0.06,0.22-0.09,0.31-0.09c0,0.35,0.07,0.62,0.22,0.79c0.12-0.09,0.13-0.18,0.04-0.26
		c0-0.2-0.09,0.12-0.26,0.97c-0.12-0.12-0.25-0.18-0.4-0.18c-0.23,0.38-0.29,0.76-0.18,1.14c-0.12-0.15-0.23-0.16-0.35-0.04
		l0.22,0.48c0.18,0,0.26-0.1,0.26-0.31l0.44,1.41c0.12-0.15,0.42-0.2,0.92-0.18l0.26-0.26c0.2-0.03,0.51-0.1,0.92-0.22
		c0-0.56-0.02-0.79-0.04-0.7c0.03-0.15,0.1-0.32,0.22-0.53c0.12-0.06,0.06-0.42-0.18-1.1l1.32-2.42c-0.03,0.23,0.1,0.41,0.4,0.53
		c0.09-0.15,0.07-0.26-0.04-0.35l4.09-0.26h8.09l-0.4,1.36c0.15,0.15,0.34,0.21,0.57,0.2c0.23-0.01,0.53,0.18,0.88,0.59
		c0.23-0.15,0.44-0.41,0.62-0.79c0.18-0.67,0.18-1.1,0-1.27h2.07L252.36,65.18z M218.66,63.25c0,0.09-0.06,0.15-0.18,0.18
		c-0.18-0.18-0.28-0.26-0.31-0.26l-0.13,0.62c0.32,0,0.48,0.15,0.48,0.44L218.66,63.25z M219.32,63.47l-0.18-0.09l-0.18,0.35
		l0.18,0.09L219.32,63.47z M220.63,61.76c-0.15,0-0.29,0.09-0.44,0.26c-0.18-0.35-0.34-0.53-0.48-0.53l-0.4,0.79
		c-0.09-0.09-0.19-0.12-0.31-0.09c0.03,0.03,0.12,0.17,0.26,0.42c0.15,0.25,0.26,0.42,0.35,0.51v-0.4l0.7,0.13L220.63,61.76z
		 M220.24,64h-0.66c0,0.32-0.15,0.47-0.44,0.44l0.92,0.35c0-0.03,0.03-0.13,0.09-0.31C220.21,64.31,220.24,64.14,220.24,64z
		 M224.76,33.5h-0.13c-0.15,0-0.34-0.04-0.57-0.13l-1.19,1.19c0.09,0,0.19-0.03,0.31-0.09l0.26,0.4c0.03,0,0.1-0.04,0.22-0.13
		c0.12-0.09,0.25-0.13,0.4-0.13C224.47,34.6,224.71,34.23,224.76,33.5z M224.63,4.54l-0.44,0.83c-0.03-0.09-0.1-0.2-0.22-0.35
		L224.63,4.54z M227.71,18.43c-0.09,0-0.19,0.03-0.31,0.09l-0.35-0.26c0,0.09-0.15,0.29-0.44,0.62v0.48
		c-0.21,0.09,0.06,0.13,0.79,0.13C227.46,19.19,227.56,18.84,227.71,18.43z M227.01,19.7v-0.26h-0.35v0.26H227.01z M228.06,2.04
		c-0.03,0.03-0.06,0.07-0.09,0.13c-0.03,0.06-0.06,0.15-0.09,0.26C228.09,2.25,228.15,2.12,228.06,2.04z M232.98,37.76l-1.19-13.97
		c-0.29,3.19-0.86,7.85-1.71,13.97H232.98z M233.25,15.53l-0.92-0.31c0,0.09,0.04,0.19,0.13,0.31c-0.12,0.12-0.29,0.29-0.53,0.53
		c-0.15-0.12-0.31-0.09-0.48,0.09c0.29,0,0.48,0.04,0.57,0.13v0.57l0.57-0.18c-0.21,0-0.35-0.04-0.44-0.13
		c0.23-0.21,0.54-0.19,0.92,0.04L233.25,15.53z M240.58,55.21l-0.35-0.4c0,0.21-0.1,0.31-0.31,0.31
		C239.95,55.18,240.17,55.21,240.58,55.21z M241.29,5.2V3.75c-0.09-0.09-0.31-0.15-0.66-0.18c0,0.32-0.15,0.47-0.44,0.44
		c0.26,0.35,0.38,0.57,0.35,0.66c0-0.09,0.04-0.13,0.13-0.13c0.03,0.09,0.03,0.23,0,0.44c-0.03,0.18,0.01,0.26,0.13,0.26
		C241.01,5.24,241.17,5.23,241.29,5.2z M240.8,2.3h-0.26V1.64h0.26V2.3z M247.22,59.25h-0.48c-0.09,0.23-0.22,0.56-0.4,0.97
		l-0.35-0.97h-0.53v0.83c-0.15-0.15-0.41-0.34-0.79-0.57c-0.03,0.03-0.04,0.26-0.04,0.7c0.09,0,0.19-0.04,0.31-0.13
		c0.35,0.5,0.63,0.95,0.83,1.36c0.12,0,0.26-0.09,0.44-0.26c0.06,0.06,0.09,0.23,0.09,0.53c-0.03,0,0.09-0.13,0.35-0.4
		c0.18,0.18,0.32,0.23,0.44,0.18c-0.03-0.23-0.16-0.54-0.4-0.92l0.35-0.22c0.18,0.18,0.23,0.26,0.18,0.26
		C247.22,60.26,247.22,59.81,247.22,59.25z M247.88,61.32c0-0.23-0.1-0.45-0.31-0.66L247.88,61.32z"/>
	<path d="M294.73,45.98c0.06,0.32,0.04,1.55-0.04,3.69c-0.12,1.99-0.18,3.05-0.18,3.16c-0.26,1.23-0.75,2.96-1.45,5.19
		c-0.21,0.12-0.72,0.62-1.54,1.49c-0.03,0.12-0.02,0.29,0.02,0.53c0.04,0.23,0.07,0.38,0.07,0.44c-2.4,2.75-5.27,4.58-8.61,5.49
		l-2.77-0.7c-0.21,0.15-0.29,0.37-0.26,0.66h-0.44c-0.29,0.67-0.57,1.01-0.83,1.01h-4.66l-1.23-0.44c-0.03,0-0.08,0.02-0.15,0.07
		c-0.07,0.04-0.18,0.07-0.33,0.07c-0.12,0-0.29-0.07-0.51-0.2c-0.22-0.13-0.39-0.2-0.51-0.2c-0.18,0-0.37,0.09-0.57,0.26l-0.31-0.26
		h-0.31c-0.12,0-0.16,0.04-0.13,0.13c0.03,0.09-0.02,0.13-0.13,0.13h-1.01c0.15,0-0.54-0.21-2.07-0.62c-3.54-1-6.15-2.7-7.82-5.1
		c-1.23-1.76-2.02-4.09-2.37-6.99l-0.09-9.62c0.26,0.12,0.4,0.07,0.4-0.13c0.12,0,0.22,0.03,0.31,0.09c0.32-0.12,0.5-0.34,0.53-0.66
		c0.09,0.15,0.28,0.32,0.57,0.53v-0.35c0,0.15,0.13,0.22,0.4,0.22c0.38,0,0.53-0.04,0.44-0.13c0.2-0.21,0.22-0.4,0.04-0.57
		c0.03,0.06,0.23,0.09,0.62,0.09c-0.12,0-0.23,0.04-0.35,0.13c0.09,0.09,0.2,0.23,0.35,0.42c0.15,0.19,0.29,0.36,0.44,0.51
		l1.76-0.44c0.47,0.47,0.97,0.7,1.49,0.7c0.12,0,0.23-0.04,0.33-0.13c0.1-0.09,0.2-0.13,0.29-0.13c0.12,0,0.26,0.06,0.42,0.18
		c0.16,0.12,0.27,0.18,0.33,0.18c-0.12,0-0.22,0.04-0.31,0.13c0,0.06,0.12,0.13,0.35,0.22h0.97c0,0.59,0.07,0.98,0.22,1.19
		c-0.03-0.03-0.1,0-0.22,0.09l0.4,0.22c0.18,0,0.28-0.01,0.31-0.04c0-0.09-0.04-0.13-0.13-0.13h0.48l0.75-0.57l-1.49-1.36
		c0-0.29,0.04-0.53,0.13-0.7l-1.1-0.4c0,0.12-0.12,0.18-0.35,0.18l-0.44-0.44c-0.21,0-0.31,0.09-0.31,0.26
		c-0.44-0.21-0.78-0.32-1.01-0.35h4.57l1.36,2.99c-0.15,0-0.31,0.08-0.51,0.24c-0.19,0.16-0.33,0.26-0.42,0.29
		c0.15,0.18,0.32,0.26,0.53,0.26c-0.09,0-0.18,0.06-0.26,0.18c0,0.06,0.18,0.18,0.53,0.35c-0.18,0.21-0.26,0.34-0.26,0.4
		c0.23,0.09,0.53,0.31,0.88,0.66h0.53l0.7-1.23c0.2,0.18,0.23,0.42,0.09,0.75l0.79,0.92c0.18,0,0.19-0.07,0.04-0.22
		c0.2-0.06,0.45,0.06,0.75,0.35c0.18,0,0.28-0.03,0.31-0.09l-0.22-0.31c0.12,0.09,0.29,0.23,0.53,0.44v3.38
		c0,1.32,0.79,1.98,2.37,1.98c1.61,0,2.42-0.76,2.42-2.29l0.13-4.31c0-0.79-0.59-1.79-1.76-3.01c-1.17-1.21-1.79-2.06-1.85-2.53
		c-0.18-0.09-0.38-0.22-0.62-0.4c-0.29-0.35-0.42-0.53-0.4-0.53c0.18-0.62,0.18-1.03,0-1.23c-0.21-0.29-0.31-0.47-0.31-0.53
		c0.59-0.29,0.81-0.44,0.66-0.44l0.31,0.13v-1.14c-0.03,0-0.07,0-0.11,0s-0.13,0-0.24,0c-0.12,0-0.25,0.07-0.4,0.2
		c-0.15,0.13-0.26,0.2-0.35,0.2c0,0.26-0.09,0.04-0.26-0.66v-0.4c0,0.03,0.06,0.12,0.18,0.26l0.26-0.44c0,0.12,0.04,0.22,0.13,0.31
		c0-0.73,0.03-1.03,0.09-0.88c0.09-0.47-0.16-1.01-0.75-1.63c-0.32,0.44-0.48,0.64-0.48,0.62c0-0.06,0.12,0.15,0.35,0.62
		c-0.06,0.06,0.07,0.09,0.4,0.09c-0.06,0-0.21,0.12-0.44,0.35c0-0.06-0.04-0.16-0.13-0.31c-0.23-0.03-0.35,0.12-0.35,0.44
		c-0.32-0.64-0.48-0.94-0.48-0.88c-0.29-0.12-0.59-0.1-0.88,0.04c-0.03-0.06-0.02-0.22,0.04-0.48c0.03,0.06-0.09,0.09-0.35,0.09
		c0.09,0,0-0.15-0.26-0.44c-0.03,0.06-0.18,0.13-0.44,0.22c-0.15,0.06-0.12,0.19,0.09,0.4h-1.54c-0.29,0.29-0.38,0.54-0.26,0.75
		l-0.92-0.75l0.44-0.62l0.57,0.44l0.35-0.26c-0.06-0.38-0.4-0.81-1.01-1.27c-0.15,0.18-0.41,0.4-0.79,0.66
		c0,0.15,0.03,0.25,0.09,0.31c0.09,0,0.13-0.04,0.13-0.13c-0.09,0.18-0.07,0.35,0.04,0.53c-0.82-0.64-1.99-1.58-3.52-2.81
		c-0.35-0.29-1.29-1.29-2.81-2.99c-1.79-2.02-2.68-3.28-2.68-3.78c0-0.15,0.19-0.41,0.57-0.79c0-0.12-0.12-0.18-0.35-0.18
		c-0.7,0-1.23-1.13-1.58-3.38l-0.13-3.25c0.29,0.03,0.44-0.12,0.44-0.44l0.31,0.26c0.12-0.23,0.09-0.54-0.09-0.92
		c0.09-0.21,0.23-0.57,0.44-1.1l-0.09-0.75c-0.18,0.18-0.28,0.26-0.31,0.26c-0.03-0.29,0.06-0.63,0.26-1.01
		c-0.53-0.23-0.81-0.35-0.83-0.35c-0.03-0.23,0.05-0.44,0.24-0.62c0.19-0.18,0.4-0.25,0.64-0.22l0.35-0.26
		c0-0.12-0.03-0.22-0.09-0.31h-0.35c-0.12,0-0.18,0.1-0.18,0.31c0-0.06-0.04-0.16-0.13-0.31c-0.18,0.18-0.26,0.28-0.26,0.31
		l0.4-1.41l0.57,0.97l0.48-0.09c0-0.15-0.1-0.22-0.31-0.22c0-0.03,0.12-0.38,0.35-1.05l0.18,0.66c-0.18-0.15-0.31-0.09-0.4,0.18
		l0.53,0.26l0.53-0.26c0,0.09,0.09,0.22,0.26,0.4h0.48c0.09-0.06,0.13-0.15,0.13-0.26c0-0.29-0.19-0.62-0.57-0.97h0.48
		c-0.03-0.15,0.04-0.32,0.22-0.53c0-0.12-0.05-0.18-0.15-0.18c-0.1,0-0.15-0.09-0.15-0.26s-0.04-0.29-0.13-0.35l0.7-0.75
		c0.03-0.03,0-0.09-0.09-0.18c-0.29,0.18-0.44,0.21-0.44,0.09c0-0.26-0.04-0.44-0.13-0.53c-0.12,0-0.18,0.09-0.18,0.26
		c-0.53-0.09-0.79-0.14-0.79-0.15c0-0.01-0.05-0.09-0.15-0.24c-0.1-0.15-0.15-0.28-0.15-0.4c0-0.47,0.7-1.42,2.11-2.86
		c1.61-1.61,3.96-2.97,7.03-4.09c0.18,0.18,0.23,0.28,0.18,0.31c0.29,0.03,0.75-0.16,1.36-0.57c0.12,0,0.25,0.02,0.4,0.07
		c0.15,0.04,0.26,0.07,0.35,0.07l1.93-0.7h0.7l6.42-0.09l5.76,1.05c1.79,0.41,2.81,1.03,3.08,1.85c0.12,0.18,0.34,0.28,0.66,0.31
		c0.29,0.29,0.7,0.82,1.23,1.58c0.09-0.03,0.42,0.07,1.01,0.31V4.85c0.88,0.38,1.73,1.38,2.55,2.99c0.76,1.49,1.22,2.93,1.36,4.31
		l0.13,4.48c-0.03,0-0.11-0.02-0.24-0.07c-0.13-0.04-0.29-0.07-0.46-0.07c-0.15,0.18-0.22,0.25-0.22,0.22c0-0.23-0.07-0.4-0.22-0.48
		c-0.41,0.23-0.38,0.72,0.09,1.45c-0.23,0.15-0.56,0.38-0.97,0.7c0.15,0.09,0.41,0.13,0.79,0.13c-0.12,0.09-0.29,0.28-0.53,0.57
		c0.18,0.18,0.41,0.26,0.7,0.26c-0.21,0.18-0.22,0.35-0.04,0.53c0.15,0,0.22-0.07,0.22-0.22c0,0.15,0.09,0.22,0.26,0.22
		c0.03-0.06,0.08-0.15,0.15-0.29c0.07-0.13,0.14-0.23,0.2-0.29c0,0.15-0.04,0.26-0.13,0.35l0.4,0.22v1.76h-0.79
		c0-0.29-0.03-0.47-0.09-0.53c-0.06,0.06-0.09,0.23-0.09,0.53h-2.2c-0.12,0-0.21-0.04-0.26-0.13s-0.13-0.13-0.22-0.13
		c-0.21,0-0.31,0.09-0.31,0.26h-1.71l-3.21-0.4c-0.18,0-0.26,0.13-0.26,0.4h-2.59c0.06-0.12-0.06-0.34-0.35-0.66
		c-0.09,0.06-0.15,0.18-0.18,0.35v-0.4c-0.18-0.18-0.42-0.26-0.75-0.26c-0.03,0.12-0.21,0.29-0.53,0.53l1.1,0.4l-2.29-0.53
		c0.03-0.26-0.06-0.48-0.26-0.66c-0.26,0-0.4,0.12-0.4,0.35c0-0.03-0.15-0.19-0.44-0.48c-0.15,0-0.34,0.09-0.57,0.26v-6.28
		c0-1.32-0.62-2.05-1.85-2.2c-0.15,0-0.29-0.02-0.44-0.07c-0.15-0.04-0.28-0.07-0.4-0.07c-0.53,0-1.05,0.23-1.58,0.7
		c-0.53,0.47-0.79,0.95-0.79,1.45v3.38c0,0.62,0.64,1.58,1.93,2.9c0.85,0.88,1.7,1.76,2.55,2.64l-0.66,0.7
		c-0.03,0.23,0.1,0.41,0.4,0.53c-0.32,0-0.54,0.16-0.66,0.48l0.35,0.7c0.2,0,0.25-0.07,0.13-0.22l0.31,0.35
		c-0.03,0.12-0.1,0.21-0.22,0.26c-0.12,0.06-0.15,0.21-0.09,0.44l0.31-0.26c-0.09,0.12-0.13,0.22-0.13,0.31l1.58,1.32
		c-0.06,0.06-0.15,0.06-0.26,0l-0.09,0.48l1.36,1.27l-0.13,0.13l0.75,0.35c0,0.03,0-0.1,0-0.4l0.44,0.26c0.15,0,0.32,0.09,0.53,0.26
		c0.2,0.18,0.37,0.28,0.48,0.31c0.03,0.29-0.06,0.63-0.26,1.01l0.88,0.35c0.21-0.15,0.29-0.38,0.26-0.7l0.57,0.83
		c0.06-0.06,0.09-0.23,0.09-0.53c0.64,0.21,1.07,0.31,1.27,0.31c-0.21,0-0.32,0.07-0.35,0.22h2.02c0.18,0.21,0.31,0.31,0.4,0.31
		c0.15,0,0.22-0.1,0.22-0.31c2.4,1.88,4.42,4.12,6.06,6.72c-0.03,0.12-0.04,0.34-0.04,0.66c0.76,0.79,0.76,1.41,0,1.85l0.92,0.75
		c-0.09,0-0.22,0.09-0.4,0.26c0.18,0.12,0.44,0.34,0.79,0.66v1.58l-0.53,0.4l0.79,1.05C294.59,45.89,294.64,45.98,294.73,45.98z
		 M256.76,42.95l-0.18,0.4l-0.18-0.09l0.18-0.35L256.76,42.95z M257.64,16.27c-0.21,0-0.31,0.13-0.31,0.4
		C257.53,16.43,257.64,16.3,257.64,16.27z M257.86,17.06v-0.4h-0.22v0.4H257.86z M259.17,10.56l-0.53,0.18v-0.22l0.48-0.18
		L259.17,10.56z M259.35,8.41l-0.53-0.26l-0.04,0.22l0.48,0.22L259.35,8.41z M260.4,25.94v-0.53c-0.59,0-0.94-0.04-1.05-0.13
		c0,0.21-0.06,0.37-0.18,0.48C259.64,25.88,260.05,25.94,260.4,25.94z M260.23,9.59c-0.32,0.26-0.47,0.44-0.44,0.53
		C260.08,9.83,260.23,9.65,260.23,9.59z M260.8,9.86c-0.21,0.18-0.5,0.4-0.88,0.66C260.51,10.34,260.8,10.12,260.8,9.86z
		 M261.37,52.57c0-0.12-0.06-0.21-0.18-0.29c-0.12-0.07-0.18-0.13-0.18-0.15c0,0.09-0.21,0.22-0.62,0.4c0,0.12,0.12,0.29,0.35,0.53
		C260.93,52.97,261.14,52.81,261.37,52.57z M262.21,26.47l-0.83-0.48c-0.23,0-0.51,0.21-0.83,0.62c0.18,0,0.45,0.04,0.83,0.13
		c-0.09,0.09-0.16,0.15-0.22,0.18C261.62,26.73,261.97,26.59,262.21,26.47z M261.02,10.69h-0.22l-0.18,0.48l0.22,0.09L261.02,10.69z
		 M261.42,10.56h-0.22l-0.13,0.48l0.18,0.09L261.42,10.56z M263,44.75v-0.22l-0.79-0.13v0.22L263,44.75z M264.1,28.45v-0.79
		l-0.92-0.31c0,0.15-0.04,0.34-0.13,0.57c-0.09,0-0.18-0.04-0.26-0.13l0.26,0.66c-0.06,0,0-0.09,0.18-0.26
		C263.39,28.36,263.69,28.45,264.1,28.45z M269.41,48.53v-0.26h-0.35v0.26H269.41z M271.61,49.54c0-0.21-0.19-0.29-0.57-0.26
		c-0.32,0-0.48,0.13-0.48,0.4c0.2,0.21,0.32,0.31,0.35,0.31C271.02,49.86,271.26,49.72,271.61,49.54z M271.52,36.8l-0.09,0.18
		L271,36.8v-0.18L271.52,36.8z M271.57,37.76h-0.26v-0.53h0.26V37.76z M273.06,47.47v-0.4h-0.26v0.4H273.06z M275.87,33.76
		l-0.66-0.13c0,0.26-0.15,0.4-0.44,0.4c0.18,0.44,0.4,0.62,0.66,0.53C275.49,34.53,275.64,34.26,275.87,33.76z M275.21,33.76
		l-0.18-0.18l-0.13,0.13l0.18,0.18L275.21,33.76z M277.24,33.63l-0.79-0.18c0,0.35-0.15,0.51-0.44,0.48
		c0.53,0.26,0.72,0.41,0.57,0.44c0.15-0.06,0.31-0.09,0.48-0.09C277.06,33.97,277.12,33.75,277.24,33.63z M276.88,32.53l-0.22-0.04
		l-0.13,0.35l0.18,0.09L276.88,32.53z M277.59,32.23c0,0.09-0.04,0.13-0.13,0.13c-0.18-0.18-0.28-0.26-0.31-0.26v1.23l0.18-0.44
		c0.09,0.09,0.13,0.19,0.13,0.31L277.59,32.23z M279.83,57.14c0-0.12-0.13-0.29-0.37-0.51c-0.25-0.22-0.4-0.39-0.46-0.5
		c-0.03,0-0.13,0.09-0.31,0.26c-0.26-0.29-0.38-0.44-0.35-0.44c-0.23,0-0.51,0.16-0.83,0.48c0.12,0.12,0.18,0.28,0.18,0.48
		c0.09,0,0.19-0.04,0.31-0.13c0,0.35,0.13,0.67,0.4,0.97c-0.09,0,0.01-0.13,0.31-0.4c0.06,0.15,0.09,0.37,0.09,0.66
		C279.48,57.76,279.83,57.46,279.83,57.14z M279.96,7.92c-0.44,0-0.75,0.1-0.92,0.31l0.35,0.79c0.03-0.15,0.13-0.35,0.31-0.62
		S279.96,7.98,279.96,7.92z M279.74,28.75l-0.13,0.18l-0.35-0.35l0.18-0.13L279.74,28.75z M279.48,56.09v-0.4h-0.22v0.4H279.48z
		 M280.49,33.28v-0.7c0.03,0.06-0.04,0.13-0.22,0.22h-0.83c0.12,0.12,0.07,0.28-0.13,0.48c0.2,0,0.34,0.04,0.4,0.13
		c-0.09,0.06-0.18,0.1-0.26,0.13C279.67,33.54,280.02,33.46,280.49,33.28z M280.27,55.3l-0.35-0.31l-0.48,1.32l0.48,0.48
		C280.15,55.85,280.27,55.36,280.27,55.3z M280.27,54.15c-0.21-0.56-0.28-0.94-0.22-1.14c-0.18,0.09-0.26,0-0.26-0.26
		c-0.03,0.56,0.04,0.91,0.22,1.05c-0.29,0.26-0.44,0.45-0.44,0.57c0.32,0.32,0.48,0.53,0.48,0.62L280.27,54.15z M280.44,51.78
		c-0.15,0.06-0.22-0.03-0.22-0.26l-0.53,0.92c0.32,0.29,0.48,0.45,0.48,0.48C280.38,52.25,280.47,51.87,280.44,51.78z M280.79,57.1
		c-0.21,0-0.31-0.1-0.31-0.31l-0.35,0.7c0.06-0.06,0.18-0.12,0.35-0.2S280.77,57.16,280.79,57.1z M281.76,54.59
		c-0.21,0-0.31-0.1-0.31-0.31l-0.35,0.7c0.06-0.06,0.17-0.12,0.33-0.2C281.59,54.72,281.7,54.65,281.76,54.59z M283.08,46.38
		c-0.21,0.23-0.54,0.64-1.01,1.23v-0.57c0,0.15,0.23-0.16,0.7-0.92c0.03,0.03,0.09,0.12,0.18,0.26H283.08z M283.26,17.28l-0.62-0.22
		l-0.48,0.48l0.92,0.35C283.08,17.58,283.14,17.37,283.26,17.28z M282.9,61.45c0,0.03-0.09,0.15-0.26,0.35
		c0-0.06,0.04-0.12,0.13-0.2S282.9,61.48,282.9,61.45z M290.9,47.04v-0.66c-0.09,0-0.19,0.05-0.31,0.15
		c-0.12,0.1-0.19,0.15-0.22,0.15v-1.93c-0.06,0-0.18,0.07-0.35,0.22c-0.06-0.06-0.21-0.09-0.44-0.09c0,0.29-0.03,0.47-0.09,0.53
		c-0.06,0-0.19-0.23-0.4-0.7c-0.06,0.15-0.16,0.38-0.31,0.7c-0.26-0.44-0.48-0.91-0.66-1.41c-0.18,0.21-0.42,0.31-0.75,0.31
		c0,0.21-0.03,0.34-0.09,0.4c-0.06-0.06-0.09-0.23-0.09-0.53c0.03,0-0.12,0.13-0.44,0.4c-0.26-0.26-0.38-0.4-0.35-0.4l0.26,0.88
		c-0.09,0.09-0.15,0.12-0.18,0.09c-0.29-0.29-0.4-0.44-0.31-0.44c-0.09,0-0.22,0.09-0.4,0.26l-0.26-0.26l-0.7,0.44
		c-0.09-0.09-0.19-0.13-0.31-0.13c0.23,0.26,0.16,0.4-0.22,0.4c-0.23,0-0.34-0.04-0.31-0.13l-0.75,0.62
		c0.12,0.12,0.18,0.28,0.18,0.48c0.15-0.21,0.47-0.44,0.97-0.7c0.18,0.18,0.25,0.26,0.22,0.26c0-0.09,0.1-0.13,0.31-0.13l0.83-0.66
		l0.09,0.09v1.01c0.06,0.03,0.12,0.07,0.18,0.13c0.09-0.06,0.13-0.03,0.13,0.09v0.35c-0.09,0.09-0.21,0.22-0.35,0.4
		c-0.18-0.18-0.25-0.26-0.22-0.26h-0.53l0.18,0.53c0.44-0.03,0.75,0.06,0.92,0.26c0,0.09-0.04,0.15-0.13,0.18l-0.53-0.13
		c0,0.12,0.22,0.38,0.66,0.79v0.57c0.03,0,0.08-0.04,0.15-0.13s0.18-0.13,0.33-0.13c0.44,0,0.73,0.03,0.88,0.09v0.35
		c-0.26,0.15-0.4,0.32-0.4,0.53h0.48l1.32-0.97c0.18,0.18,0.29,0.26,0.35,0.26c0-0.09,0.03-0.18,0.09-0.26
		c0.18,0.18,0.32,0.26,0.44,0.26c0-0.09,0.06-0.19,0.18-0.31c0-0.38-0.15-0.63-0.44-0.75c0.15-0.12,0.34-0.29,0.57-0.53
		c-0.15-0.15-0.16-0.26-0.04-0.35C289.86,47.09,290.14,47.04,290.9,47.04z M284.18,17.77c0.06-0.23,0.01-0.51-0.13-0.83
		c-0.26,0.26-0.38,0.48-0.35,0.66c0.09,0,0.19-0.03,0.31-0.09C284.09,17.59,284.15,17.68,284.18,17.77z M286.51,32.27v-0.26h-0.35
		v0.26H286.51z M286.73,46.77h-0.18l-0.18-0.35l0.18-0.04L286.73,46.77z M290.24,4.85l-0.04,0.18l-0.75-0.31V4.54L290.24,4.85z
		 M290.16,47.04h-0.22l-0.13-0.31l0.18-0.09L290.16,47.04z M291.08,59.47c-0.06,0.23-0.15,0.41-0.26,0.53
		c0-0.21-0.03-0.35-0.09-0.44l-0.48,0.26c0-0.18,0.13-0.42,0.4-0.75c-0.03-0.09-0.09-0.13-0.18-0.13
		C290.7,58.94,290.9,59.12,291.08,59.47z M291.3,47.74v-0.66c-0.41,0.38-0.62,0.6-0.62,0.66C290.92,47.97,291.12,47.97,291.3,47.74z
		 M292.09,59.82v-0.35h-0.26v0.35H292.09z M292.48,57.54c-0.03-0.03-0.12-0.09-0.26-0.18c-0.26,0.26-0.37,0.48-0.31,0.66
		c0.09,0,0.19-0.04,0.31-0.13c0.09,0.09,0.15,0.19,0.18,0.31C292.4,57.64,292.43,57.42,292.48,57.54z M293.85,18.03h-0.18
		l-0.18-0.35l0.18-0.04L293.85,18.03z M293.85,41.06h-0.22v-0.48h0.22V41.06z M294.24,16.27l-0.22-0.22l-0.13,0.18l0.22,0.18
		L294.24,16.27z"/>
	<path d="M337.13,45.98c0.06,0.32,0.04,1.55-0.04,3.69c-0.12,1.99-0.18,3.05-0.18,3.16c-0.26,1.23-0.75,2.96-1.45,5.19
		c-0.21,0.12-0.72,0.62-1.54,1.49c-0.03,0.12-0.02,0.29,0.02,0.53c0.04,0.23,0.07,0.38,0.07,0.44c-2.4,2.75-5.27,4.58-8.61,5.49
		l-2.77-0.7c-0.21,0.15-0.29,0.37-0.26,0.66h-0.44c-0.29,0.67-0.57,1.01-0.83,1.01h-4.66l-1.23-0.44c-0.03,0-0.08,0.02-0.15,0.07
		c-0.07,0.04-0.18,0.07-0.33,0.07c-0.12,0-0.29-0.07-0.51-0.2c-0.22-0.13-0.39-0.2-0.5-0.2c-0.18,0-0.37,0.09-0.57,0.26l-0.31-0.26
		h-0.31c-0.12,0-0.16,0.04-0.13,0.13s-0.01,0.13-0.13,0.13h-1.01c0.15,0-0.54-0.21-2.07-0.62c-3.54-1-6.15-2.7-7.82-5.1
		c-1.23-1.76-2.02-4.09-2.37-6.99l-0.09-9.62c0.26,0.12,0.4,0.07,0.4-0.13c0.12,0,0.22,0.03,0.31,0.09c0.32-0.12,0.5-0.34,0.53-0.66
		c0.09,0.15,0.28,0.32,0.57,0.53v-0.35c0,0.15,0.13,0.22,0.4,0.22c0.38,0,0.53-0.04,0.44-0.13c0.21-0.21,0.22-0.4,0.04-0.57
		c0.03,0.06,0.23,0.09,0.62,0.09c-0.12,0-0.23,0.04-0.35,0.13c0.09,0.09,0.21,0.23,0.35,0.42c0.15,0.19,0.29,0.36,0.44,0.51
		l1.76-0.44c0.47,0.47,0.97,0.7,1.49,0.7c0.12,0,0.23-0.04,0.33-0.13s0.2-0.13,0.29-0.13c0.12,0,0.26,0.06,0.42,0.18
		s0.27,0.18,0.33,0.18c-0.12,0-0.22,0.04-0.31,0.13c0,0.06,0.12,0.13,0.35,0.22h0.97c0,0.59,0.07,0.98,0.22,1.19
		c-0.03-0.03-0.1,0-0.22,0.09l0.4,0.22c0.18,0,0.28-0.01,0.31-0.04c0-0.09-0.04-0.13-0.13-0.13h0.48l0.75-0.57l-1.49-1.36
		c0-0.29,0.04-0.53,0.13-0.7l-1.1-0.4c0,0.12-0.12,0.18-0.35,0.18l-0.44-0.44c-0.21,0-0.31,0.09-0.31,0.26
		c-0.44-0.21-0.78-0.32-1.01-0.35h4.57l1.36,2.99c-0.15,0-0.32,0.08-0.5,0.24c-0.19,0.16-0.33,0.26-0.42,0.29
		c0.15,0.18,0.32,0.26,0.53,0.26c-0.09,0-0.18,0.06-0.26,0.18c0,0.06,0.18,0.18,0.53,0.35c-0.18,0.21-0.26,0.34-0.26,0.4
		c0.23,0.09,0.53,0.31,0.88,0.66h0.53l0.7-1.23c0.21,0.18,0.23,0.42,0.09,0.75l0.79,0.92c0.18,0,0.19-0.07,0.04-0.22
		c0.21-0.06,0.45,0.06,0.75,0.35c0.18,0,0.28-0.03,0.31-0.09l-0.22-0.31c0.12,0.09,0.29,0.23,0.53,0.44v3.38
		c0,1.32,0.79,1.98,2.37,1.98c1.61,0,2.42-0.76,2.42-2.29l0.13-4.31c0-0.79-0.59-1.79-1.76-3.01c-1.17-1.21-1.79-2.06-1.85-2.53
		c-0.18-0.09-0.38-0.22-0.62-0.4c-0.29-0.35-0.42-0.53-0.4-0.53c0.18-0.62,0.18-1.03,0-1.23c-0.21-0.29-0.31-0.47-0.31-0.53
		c0.59-0.29,0.81-0.44,0.66-0.44l0.31,0.13v-1.14c-0.03,0-0.07,0-0.11,0c-0.04,0-0.13,0-0.24,0s-0.25,0.07-0.4,0.2
		c-0.15,0.13-0.26,0.2-0.35,0.2c0,0.26-0.09,0.04-0.26-0.66v-0.4c0,0.03,0.06,0.12,0.18,0.26l0.26-0.44c0,0.12,0.04,0.22,0.13,0.31
		c0-0.73,0.03-1.03,0.09-0.88c0.09-0.47-0.16-1.01-0.75-1.63c-0.32,0.44-0.48,0.64-0.48,0.62c0-0.06,0.12,0.15,0.35,0.62
		c-0.06,0.06,0.07,0.09,0.4,0.09c-0.06,0-0.21,0.12-0.44,0.35c0-0.06-0.04-0.16-0.13-0.31c-0.23-0.03-0.35,0.12-0.35,0.44
		c-0.32-0.64-0.48-0.94-0.48-0.88c-0.29-0.12-0.59-0.1-0.88,0.04c-0.03-0.06-0.01-0.22,0.04-0.48c0.03,0.06-0.09,0.09-0.35,0.09
		c0.09,0,0-0.15-0.26-0.44c-0.03,0.06-0.18,0.13-0.44,0.22c-0.15,0.06-0.12,0.19,0.09,0.4h-1.54c-0.29,0.29-0.38,0.54-0.26,0.75
		l-0.92-0.75l0.44-0.62l0.57,0.44l0.35-0.26c-0.06-0.38-0.4-0.81-1.01-1.27c-0.15,0.18-0.41,0.4-0.79,0.66
		c0,0.15,0.03,0.25,0.09,0.31c0.09,0,0.13-0.04,0.13-0.13c-0.09,0.18-0.07,0.35,0.04,0.53c-0.82-0.64-1.99-1.58-3.52-2.81
		c-0.35-0.29-1.29-1.29-2.81-2.99c-1.79-2.02-2.68-3.28-2.68-3.78c0-0.15,0.19-0.41,0.57-0.79c0-0.12-0.12-0.18-0.35-0.18
		c-0.7,0-1.23-1.13-1.58-3.38l-0.13-3.25c0.29,0.03,0.44-0.12,0.44-0.44l0.31,0.26c0.12-0.23,0.09-0.54-0.09-0.92
		c0.09-0.21,0.23-0.57,0.44-1.1l-0.09-0.75c-0.18,0.18-0.28,0.26-0.31,0.26c-0.03-0.29,0.06-0.63,0.26-1.01
		c-0.53-0.23-0.81-0.35-0.83-0.35c-0.03-0.23,0.05-0.44,0.24-0.62c0.19-0.18,0.4-0.25,0.64-0.22l0.35-0.26
		c0-0.12-0.03-0.22-0.09-0.31h-0.35c-0.12,0-0.18,0.1-0.18,0.31c0-0.06-0.04-0.16-0.13-0.31c-0.18,0.18-0.26,0.28-0.26,0.31
		l0.4-1.41l0.57,0.97l0.48-0.09c0-0.15-0.1-0.22-0.31-0.22c0-0.03,0.12-0.38,0.35-1.05l0.18,0.66c-0.18-0.15-0.31-0.09-0.4,0.18
		l0.53,0.26l0.53-0.26c0,0.09,0.09,0.22,0.26,0.4h0.48c0.09-0.06,0.13-0.15,0.13-0.26c0-0.29-0.19-0.62-0.57-0.97h0.48
		c-0.03-0.15,0.04-0.32,0.22-0.53c0-0.12-0.05-0.18-0.15-0.18c-0.1,0-0.15-0.09-0.15-0.26s-0.04-0.29-0.13-0.35l0.7-0.75
		c0.03-0.03,0-0.09-0.09-0.18c-0.29,0.18-0.44,0.21-0.44,0.09c0-0.26-0.04-0.44-0.13-0.53c-0.12,0-0.18,0.09-0.18,0.26
		c-0.53-0.09-0.79-0.14-0.79-0.15c0-0.01-0.05-0.09-0.15-0.24c-0.1-0.15-0.15-0.28-0.15-0.4c0-0.47,0.7-1.42,2.11-2.86
		c1.61-1.61,3.96-2.97,7.03-4.09c0.18,0.18,0.23,0.28,0.18,0.31c0.29,0.03,0.75-0.16,1.36-0.57c0.12,0,0.25,0.02,0.4,0.07
		s0.26,0.07,0.35,0.07l1.93-0.7h0.7l6.42-0.09l5.76,1.05c1.79,0.41,2.81,1.03,3.08,1.85c0.12,0.18,0.34,0.28,0.66,0.31
		c0.29,0.29,0.7,0.82,1.23,1.58c0.09-0.03,0.42,0.07,1.01,0.31V4.85c0.88,0.38,1.73,1.38,2.55,2.99c0.76,1.49,1.22,2.93,1.36,4.31
		l0.13,4.48c-0.03,0-0.11-0.02-0.24-0.07c-0.13-0.04-0.29-0.07-0.46-0.07c-0.15,0.18-0.22,0.25-0.22,0.22c0-0.23-0.07-0.4-0.22-0.48
		c-0.41,0.23-0.38,0.72,0.09,1.45c-0.23,0.15-0.56,0.38-0.97,0.7c0.15,0.09,0.41,0.13,0.79,0.13c-0.12,0.09-0.29,0.28-0.53,0.57
		c0.18,0.18,0.41,0.26,0.7,0.26c-0.21,0.18-0.22,0.35-0.04,0.53c0.15,0,0.22-0.07,0.22-0.22c0,0.15,0.09,0.22,0.26,0.22
		c0.03-0.06,0.08-0.15,0.15-0.29c0.07-0.13,0.14-0.23,0.2-0.29c0,0.15-0.04,0.26-0.13,0.35l0.4,0.22v1.76h-0.79
		c0-0.29-0.03-0.47-0.09-0.53c-0.06,0.06-0.09,0.23-0.09,0.53h-2.2c-0.12,0-0.21-0.04-0.26-0.13s-0.13-0.13-0.22-0.13
		c-0.21,0-0.31,0.09-0.31,0.26h-1.71l-3.21-0.4c-0.18,0-0.26,0.13-0.26,0.4h-2.59c0.06-0.12-0.06-0.34-0.35-0.66
		c-0.09,0.06-0.15,0.18-0.18,0.35v-0.4c-0.18-0.18-0.42-0.26-0.75-0.26c-0.03,0.12-0.21,0.29-0.53,0.53l1.1,0.4l-2.29-0.53
		c0.03-0.26-0.06-0.48-0.26-0.66c-0.26,0-0.4,0.12-0.4,0.35c0-0.03-0.15-0.19-0.44-0.48c-0.15,0-0.34,0.09-0.57,0.26v-6.28
		c0-1.32-0.62-2.05-1.85-2.2c-0.15,0-0.29-0.02-0.44-0.07s-0.28-0.07-0.4-0.07c-0.53,0-1.05,0.23-1.58,0.7
		c-0.53,0.47-0.79,0.95-0.79,1.45v3.38c0,0.62,0.64,1.58,1.93,2.9c0.85,0.88,1.7,1.76,2.55,2.64l-0.66,0.7
		c-0.03,0.23,0.1,0.41,0.4,0.53c-0.32,0-0.54,0.16-0.66,0.48l0.35,0.7c0.21,0,0.25-0.07,0.13-0.22l0.31,0.35
		c-0.03,0.12-0.1,0.21-0.22,0.26s-0.15,0.21-0.09,0.44l0.31-0.26c-0.09,0.12-0.13,0.22-0.13,0.31l1.58,1.32
		c-0.06,0.06-0.15,0.06-0.26,0l-0.09,0.48l1.36,1.27l-0.13,0.13l0.75,0.35c0,0.03,0-0.1,0-0.4l0.44,0.26c0.15,0,0.32,0.09,0.53,0.26
		s0.37,0.28,0.48,0.31c0.03,0.29-0.06,0.63-0.26,1.01l0.88,0.35c0.21-0.15,0.29-0.38,0.26-0.7l0.57,0.83
		c0.06-0.06,0.09-0.23,0.09-0.53c0.64,0.21,1.07,0.31,1.27,0.31c-0.21,0-0.32,0.07-0.35,0.22h2.02c0.18,0.21,0.31,0.31,0.4,0.31
		c0.15,0,0.22-0.1,0.22-0.31c2.4,1.88,4.42,4.12,6.06,6.72c-0.03,0.12-0.04,0.34-0.04,0.66c0.76,0.79,0.76,1.41,0,1.85l0.92,0.75
		c-0.09,0-0.22,0.09-0.4,0.26c0.18,0.12,0.44,0.34,0.79,0.66v1.58l-0.53,0.4l0.79,1.05C337,45.89,337.04,45.98,337.13,45.98z
		 M299.16,42.95l-0.18,0.4l-0.18-0.09l0.18-0.35L299.16,42.95z M300.04,16.27c-0.21,0-0.31,0.13-0.31,0.4
		C299.94,16.43,300.04,16.3,300.04,16.27z M300.26,17.06v-0.4h-0.22v0.4H300.26z M301.58,10.56l-0.53,0.18v-0.22l0.48-0.18
		L301.58,10.56z M301.76,8.41l-0.53-0.26l-0.04,0.22l0.48,0.22L301.76,8.41z M302.81,25.94v-0.53c-0.59,0-0.94-0.04-1.05-0.13
		c0,0.21-0.06,0.37-0.18,0.48C302.05,25.88,302.46,25.94,302.81,25.94z M302.64,9.59c-0.32,0.26-0.47,0.44-0.44,0.53
		C302.49,9.83,302.64,9.65,302.64,9.59z M303.21,9.86c-0.21,0.18-0.5,0.4-0.88,0.66C302.91,10.34,303.21,10.12,303.21,9.86z
		 M303.78,52.57c0-0.12-0.06-0.21-0.18-0.29s-0.18-0.13-0.18-0.15c0,0.09-0.21,0.22-0.62,0.4c0,0.12,0.12,0.29,0.35,0.53
		C303.34,52.97,303.54,52.81,303.78,52.57z M304.61,26.47l-0.83-0.48c-0.23,0-0.51,0.21-0.83,0.62c0.18,0,0.45,0.04,0.83,0.13
		c-0.09,0.09-0.16,0.15-0.22,0.18C304.03,26.73,304.38,26.59,304.61,26.47z M303.43,10.69h-0.22l-0.18,0.48l0.22,0.09L303.43,10.69z
		 M303.82,10.56h-0.22l-0.13,0.48l0.18,0.09L303.82,10.56z M305.4,44.75v-0.22l-0.79-0.13v0.22L305.4,44.75z M306.5,28.45v-0.79
		l-0.92-0.31c0,0.15-0.04,0.34-0.13,0.57c-0.09,0-0.18-0.04-0.26-0.13l0.26,0.66c-0.06,0,0-0.09,0.18-0.26
		C305.8,28.36,306.09,28.45,306.5,28.45z M311.82,48.53v-0.26h-0.35v0.26H311.82z M314.02,49.54c0-0.21-0.19-0.29-0.57-0.26
		c-0.32,0-0.48,0.13-0.48,0.4c0.21,0.21,0.32,0.31,0.35,0.31C313.43,49.86,313.67,49.72,314.02,49.54z M313.93,36.8l-0.09,0.18
		l-0.44-0.18v-0.18L313.93,36.8z M313.97,37.76h-0.26v-0.53h0.26V37.76z M315.47,47.47v-0.4h-0.26v0.4H315.47z M318.28,33.76
		l-0.66-0.13c0,0.26-0.15,0.4-0.44,0.4c0.18,0.44,0.4,0.62,0.66,0.53C317.9,34.53,318.05,34.26,318.28,33.76z M317.62,33.76
		l-0.18-0.18l-0.13,0.13l0.18,0.18L317.62,33.76z M319.64,33.63l-0.79-0.18c0,0.35-0.15,0.51-0.44,0.48
		c0.53,0.26,0.72,0.41,0.57,0.44c0.15-0.06,0.31-0.09,0.48-0.09C319.47,33.97,319.53,33.75,319.64,33.63z M319.29,32.53l-0.22-0.04
		l-0.13,0.35l0.18,0.09L319.29,32.53z M319.99,32.23c0,0.09-0.04,0.13-0.13,0.13c-0.18-0.18-0.28-0.26-0.31-0.26v1.23l0.18-0.44
		c0.09,0.09,0.13,0.19,0.13,0.31L319.99,32.23z M322.24,57.14c0-0.12-0.13-0.29-0.37-0.51c-0.25-0.22-0.4-0.39-0.46-0.5
		c-0.03,0-0.13,0.09-0.31,0.26c-0.26-0.29-0.38-0.44-0.35-0.44c-0.23,0-0.51,0.16-0.83,0.48c0.12,0.12,0.18,0.28,0.18,0.48
		c0.09,0,0.19-0.04,0.31-0.13c0,0.35,0.13,0.67,0.4,0.97c-0.09,0,0.01-0.13,0.31-0.4c0.06,0.15,0.09,0.37,0.09,0.66
		C321.88,57.76,322.24,57.46,322.24,57.14z M322.37,7.92c-0.44,0-0.75,0.1-0.92,0.31l0.35,0.79c0.03-0.15,0.13-0.35,0.31-0.62
		S322.37,7.98,322.37,7.92z M322.15,28.75l-0.13,0.18l-0.35-0.35l0.18-0.13L322.15,28.75z M321.88,56.09v-0.4h-0.22v0.4H321.88z
		 M322.89,33.28v-0.7c0.03,0.06-0.04,0.13-0.22,0.22h-0.83c0.12,0.12,0.07,0.28-0.13,0.48c0.21,0,0.34,0.04,0.4,0.13
		c-0.09,0.06-0.18,0.1-0.26,0.13C322.07,33.54,322.43,33.46,322.89,33.28z M322.67,55.3l-0.35-0.31l-0.48,1.32l0.48,0.48
		C322.56,55.85,322.67,55.36,322.67,55.3z M322.67,54.15c-0.21-0.56-0.28-0.94-0.22-1.14c-0.18,0.09-0.26,0-0.26-0.26
		c-0.03,0.56,0.04,0.91,0.22,1.05c-0.29,0.26-0.44,0.45-0.44,0.57c0.32,0.32,0.48,0.53,0.48,0.62L322.67,54.15z M322.85,51.78
		c-0.15,0.06-0.22-0.03-0.22-0.26l-0.53,0.92c0.32,0.29,0.48,0.45,0.48,0.48C322.79,52.25,322.88,51.87,322.85,51.78z M323.2,57.1
		c-0.21,0-0.31-0.1-0.31-0.31l-0.35,0.7c0.06-0.06,0.18-0.12,0.35-0.2S323.17,57.16,323.2,57.1z M324.17,54.59
		c-0.21,0-0.31-0.1-0.31-0.31l-0.35,0.7c0.06-0.06,0.17-0.12,0.33-0.2C324,54.72,324.11,54.65,324.17,54.59z M325.49,46.38
		c-0.21,0.23-0.54,0.64-1.01,1.23v-0.57c0,0.15,0.23-0.16,0.7-0.92c0.03,0.03,0.09,0.12,0.18,0.26H325.49z M325.66,17.28l-0.62-0.22
		l-0.48,0.48l0.92,0.35C325.49,17.58,325.55,17.37,325.66,17.28z M325.31,61.45c0,0.03-0.09,0.15-0.26,0.35
		c0-0.06,0.04-0.12,0.13-0.2S325.31,61.48,325.31,61.45z M333.31,47.04v-0.66c-0.09,0-0.19,0.05-0.31,0.15
		c-0.12,0.1-0.19,0.15-0.22,0.15v-1.93c-0.06,0-0.18,0.07-0.35,0.22c-0.06-0.06-0.21-0.09-0.44-0.09c0,0.29-0.03,0.47-0.09,0.53
		c-0.06,0-0.19-0.23-0.4-0.7c-0.06,0.15-0.16,0.38-0.31,0.7c-0.26-0.44-0.48-0.91-0.66-1.41c-0.18,0.21-0.42,0.31-0.75,0.31
		c0,0.21-0.03,0.34-0.09,0.4c-0.06-0.06-0.09-0.23-0.09-0.53c0.03,0-0.12,0.13-0.44,0.4c-0.26-0.26-0.38-0.4-0.35-0.4l0.26,0.88
		c-0.09,0.09-0.15,0.12-0.18,0.09c-0.29-0.29-0.4-0.44-0.31-0.44c-0.09,0-0.22,0.09-0.4,0.26l-0.26-0.26l-0.7,0.44
		c-0.09-0.09-0.19-0.13-0.31-0.13c0.23,0.26,0.16,0.4-0.22,0.4c-0.23,0-0.34-0.04-0.31-0.13l-0.75,0.62
		c0.12,0.12,0.18,0.28,0.18,0.48c0.15-0.21,0.47-0.44,0.97-0.7c0.18,0.18,0.25,0.26,0.22,0.26c0-0.09,0.1-0.13,0.31-0.13l0.83-0.66
		l0.09,0.09v1.01c0.06,0.03,0.12,0.07,0.18,0.13c0.09-0.06,0.13-0.03,0.13,0.09v0.35c-0.09,0.09-0.21,0.22-0.35,0.4
		c-0.18-0.18-0.25-0.26-0.22-0.26h-0.53l0.18,0.53c0.44-0.03,0.75,0.06,0.92,0.26c0,0.09-0.04,0.15-0.13,0.18l-0.53-0.13
		c0,0.12,0.22,0.38,0.66,0.79v0.57c0.03,0,0.08-0.04,0.15-0.13s0.18-0.13,0.33-0.13c0.44,0,0.73,0.03,0.88,0.09v0.35
		c-0.26,0.15-0.4,0.32-0.4,0.53h0.48l1.32-0.97c0.18,0.18,0.29,0.26,0.35,0.26c0-0.09,0.03-0.18,0.09-0.26
		c0.18,0.18,0.32,0.26,0.44,0.26c0-0.09,0.06-0.19,0.18-0.31c0-0.38-0.15-0.63-0.44-0.75c0.15-0.12,0.34-0.29,0.57-0.53
		c-0.15-0.15-0.16-0.26-0.04-0.35C332.27,47.09,332.55,47.04,333.31,47.04z M326.59,17.77c0.06-0.23,0.01-0.51-0.13-0.83
		c-0.26,0.26-0.38,0.48-0.35,0.66c0.09,0,0.19-0.03,0.31-0.09C326.5,17.59,326.56,17.68,326.59,17.77z M328.92,32.27v-0.26h-0.35
		v0.26H328.92z M329.13,46.77h-0.18l-0.18-0.35l0.18-0.04L329.13,46.77z M332.65,4.85l-0.04,0.18l-0.75-0.31V4.54L332.65,4.85z
		 M332.56,47.04h-0.22l-0.13-0.31l0.18-0.09L332.56,47.04z M333.49,59.47c-0.06,0.23-0.15,0.41-0.26,0.53
		c0-0.21-0.03-0.35-0.09-0.44l-0.48,0.26c0-0.18,0.13-0.42,0.4-0.75c-0.03-0.09-0.09-0.13-0.18-0.13
		C333.1,58.94,333.31,59.12,333.49,59.47z M333.71,47.74v-0.66c-0.41,0.38-0.62,0.6-0.62,0.66
		C333.32,47.97,333.53,47.97,333.71,47.74z M334.5,59.82v-0.35h-0.26v0.35H334.5z M334.89,57.54c-0.03-0.03-0.12-0.09-0.26-0.18
		c-0.26,0.26-0.37,0.48-0.31,0.66c0.09,0,0.19-0.04,0.31-0.13c0.09,0.09,0.15,0.19,0.18,0.31C334.8,57.64,334.83,57.42,334.89,57.54
		z M336.25,18.03h-0.18l-0.18-0.35l0.18-0.04L336.25,18.03z M336.25,41.06h-0.22v-0.48h0.22V41.06z M336.65,16.27l-0.22-0.22
		l-0.13,0.18l0.22,0.18L336.65,16.27z"/>
	<path d="M372.33,64.35h-3.34c0.21,0,0.1-0.06-0.31-0.18c-0.09,0.03-0.19,0.04-0.31,0.04c-0.41,0-0.67-0.06-0.79-0.18
		c-0.21-0.23-0.42-0.41-0.66-0.53c-0.15,0.56-0.22,0.82-0.22,0.79h-19.42c0.15-0.15,0.16-0.26,0.04-0.35
		c-0.26,0.15-0.53,0.15-0.79,0c-0.15,0.15-0.18,0.26-0.09,0.35h-4.66c0.06-0.15,0.12-0.19,0.18-0.13c0.38-0.18,0.56-0.4,0.53-0.66
		c-0.06-0.06-0.13-0.12-0.2-0.2c-0.07-0.07-0.12-0.14-0.15-0.2c-0.09,0.09-0.13,0.25-0.13,0.48c0-0.44-0.07-0.82-0.22-1.14
		c0.15,0,0.28-0.06,0.4-0.18c-0.15-0.23-0.31-0.28-0.48-0.13c0-0.26,0.07-0.56,0.22-0.88c-0.09-0.09-0.22-0.07-0.4,0.04
		c0.18-0.18,0.44-0.4,0.79-0.66c0-0.03-0.13,0.09-0.4,0.35c-0.03,0.06,0,0.13,0.09,0.22c0.29-0.12,0.54-0.29,0.75-0.53
		c-0.06-0.09-0.13-0.19-0.2-0.31s-0.14-0.22-0.2-0.31c-0.15,0-0.22,0.12-0.22,0.35c0-0.23-0.12-0.35-0.35-0.35
		c0.38-0.35,0.45-0.56,0.22-0.62h-1.45c0.23-0.09,0.31-0.25,0.22-0.48c-0.06-0.09-0.12-0.13-0.18-0.13v-7.38
		c0.12,0.12,0.23,0.15,0.35,0.09c-0.03-0.06-0.04-0.25-0.04-0.57c0,0.23,0.12,0.35,0.35,0.35l0.13-0.48
		c-0.15-0.23-0.32-0.35-0.53-0.35c0-0.09-0.03-0.25-0.09-0.48s-0.09-0.37-0.09-0.4c0.21-0.21,0.32-0.31,0.35-0.31
		c0.09,0.06,0.06,0.16-0.09,0.31l0.48,0.22l0.09-0.09l-0.97-1.93l0.53,0.13c0,0.79,0.06,1.03,0.18,0.7
		c0.29,0.26,0.38,0.41,0.26,0.44l0.44,0.18l0.09-0.09l-1.49-2.55V15.35c0.21,0.06,0.38-0.04,0.53-0.31c-0.12-0.18-0.28-0.18-0.48,0
		v-2.15c0.21,0,0.53,0.09,0.97,0.26c0-0.18,0.06-0.45,0.18-0.83c0,0.21,0.04,0.34,0.13,0.4c0.06-0.06,0.09-0.18,0.09-0.35h0.13
		c-0.12-0.2-0.18-0.56-0.18-1.05c-0.09-0.09-0.29-0.07-0.62,0.04l-0.26-0.53c-0.26,0.26-0.42,0.4-0.48,0.4V1.38h29.09l1.76,0.53
		c0.12-0.12,0.32-0.29,0.62-0.53v2.46l-0.83-0.4c-0.09,0.15-0.26,0.35-0.53,0.62v0.48l1.36,0.57v4.44
		c-0.32-0.06-0.79-0.23-1.41-0.53c-0.12,0.18-0.37,0.4-0.75,0.66l1.76,0.88l0.4-0.26v2.29c-0.03,0-0.78,0-2.24,0
		c-0.12,0-0.18,0.04-0.18,0.13c0,0.12-0.06,0.18-0.18,0.18h-6.86c-0.12,0-0.19-0.05-0.22-0.15c-0.03-0.1-0.1-0.15-0.22-0.15
		s-0.18,0.04-0.18,0.13c0,0.12-0.06,0.16-0.18,0.13h-4.57c0,0.18-0.18,0.44-0.53,0.79c0,0.15,0.13,0.22,0.4,0.22v5.32
		c-0.12,0-0.22-0.04-0.31-0.13l-0.48,0.62l0.83,0.35v3.82l4.53,0.44c0.09-0.09,0.09-0.18,0-0.26h10.11v9.67l-0.48-0.26
		c-0.12,0-0.23,0.07-0.35,0.22c-0.15,0.18-0.13,0.31,0.04,0.4c-0.29,0-0.48,0.04-0.57,0.13c0.06,0.09,0.51,0.47,1.36,1.14h-10.15
		c-0.12,0-0.19-0.04-0.22-0.13s-0.1-0.13-0.22-0.13S361,35.08,361,35.17c0,0.12-0.06,0.18-0.18,0.18h-3.6
		c0,0.23-0.12,0.63-0.35,1.19c0,0.03,0.04,0.03,0.13,0c0.03,0.06,0.07,0.12,0.13,0.18v1.63c-0.23-0.18-0.41-0.18-0.53,0
		c0.06,0.12,0.23,0.18,0.53,0.18v2.15c-0.23,0-0.48-0.13-0.75-0.4c-0.12,0.15-0.37,0.35-0.75,0.62c0.18,0.23,0.67,0.44,1.49,0.62
		v11.34h10.11v0.44h0.35c0.12-0.12,0.1-0.25-0.04-0.4h2.81l1.98,0.83V64.35z M341.31,13.68v-0.4h-0.26v0.4H341.31z M342.54,12.14
		l-0.18-0.4l-0.22,0.09l0.18,0.31H342.54z M343.29,10.87l-0.44-0.44c-0.21,0.32-0.42,0.51-0.66,0.57l0.57,0.35
		c0,0.06,0.07,0.03,0.22-0.09C343.12,11.15,343.23,11.02,343.29,10.87z M343.72,10.08c-0.15-0.12-0.18-0.42-0.09-0.92
		c-0.18,0-0.26-0.09-0.26-0.26c-0.23,0.47-0.34,0.75-0.31,0.83c0.09,0,0.16,0.03,0.22,0.09l-0.22,0.57
		c0.03-0.03,0.13-0.08,0.31-0.15C343.55,10.16,343.67,10.11,343.72,10.08z M344.21,10.12c0.03,0.03-0.13,0.04-0.48,0.04
		C343.67,10.14,343.83,10.12,344.21,10.12z M357.3,2.87c0,0.09-0.12,0.13-0.35,0.13l-0.31-0.26c0,0.06-0.18,0.38-0.53,0.97
		c-0.09-0.29-0.38-0.53-0.88-0.7L353,3.57c-0.21-0.38-0.4-0.62-0.57-0.7h-0.48l-0.22,0.97c-0.09-0.06-0.13-0.19-0.13-0.4
		c-0.15,0.26-0.32,0.4-0.53,0.4c-0.23-0.2-0.34-0.4-0.31-0.57c0,0.15-0.09,0.22-0.26,0.22c0.09,0,0.16,0.04,0.22,0.13
		c-0.15,0.06-0.32,0.17-0.51,0.33c-0.19,0.16-0.36,0.27-0.5,0.33c0.09-0.2,0.12-0.35,0.09-0.44c-0.18-0.09-0.42-0.22-0.75-0.4
		l-2.46,0.7c0,0.21-0.18,0.4-0.53,0.57c0.09,0.12,0.31,0.26,0.66,0.44c0,0.15-0.03,0.25-0.09,0.31c-0.26-0.15-0.47-0.15-0.62,0
		c0-0.67-0.04-0.94-0.13-0.79c-0.29,0.18-0.51,0.19-0.66,0.04l0.09-0.44l-1.32,1.14c0.09,0.09,0.18,0.23,0.29,0.42
		c0.1,0.19,0.17,0.3,0.2,0.33c0.12-0.12,0.28-0.09,0.48,0.09v0.44c0.12-0.06,0.54-0.47,1.27-1.23c0.18,0.18,0.32,0.26,0.44,0.26
		c0.18-0.29,0.42-0.47,0.75-0.53l0.97,0.35c-0.23,0-0.6,0.03-1.1,0.09V6.3c0.23-0.2,0.37-0.31,0.4-0.31c0,0.15-0.06,0.31-0.18,0.48
		s-0.18,0.29-0.18,0.35c0-0.23,0.12-0.29,0.35-0.18l-0.26,0.31c0.09,0,0.19-0.04,0.31-0.13v0.31h-0.4
		c-0.06-0.15-0.22-0.32-0.48-0.53c-0.35-0.47-0.66-0.5-0.92-0.09c0.21,0,0.34,0.04,0.4,0.13c-0.5,0.35-0.78,0.53-0.83,0.53
		c0.21,0.09,0.31,0.21,0.31,0.35c-0.38,0-0.57,0.13-0.57,0.4c0.21,0,0.34,0.03,0.4,0.09c-0.03,0.06-0.08,0.12-0.15,0.18
		c-0.07,0.06-0.14,0.12-0.2,0.18c-0.29-0.15-0.38-0.34-0.26-0.57c-0.12-0.03-0.28,0-0.48,0.09c0.18,0.15,0.16,0.44-0.04,0.88
		c-0.09-0.09-0.13-0.18-0.13-0.26c-0.06,0.32-0.16,0.78-0.31,1.36c0.5-0.35,0.92-0.81,1.27-1.36c-0.06,0.09-0.13,0.22-0.22,0.4
		c0.06-0.06,0.18-0.11,0.35-0.15s0.28-0.09,0.31-0.15c0-0.06-0.04-0.1-0.13-0.13c-0.09-0.03-0.13-0.07-0.13-0.13
		c0.06,0.06,0.22,0.12,0.48,0.18h0.48c0-0.18,0.06-0.26,0.18-0.26c0.18,0.18,0.25,0.26,0.22,0.26c0.15,0,0.26-0.04,0.35-0.13
		c0.18,0.18,0.23,0.26,0.18,0.26c0-0.12,0.1-0.28,0.31-0.48c-0.09-0.09-0.18-0.23-0.26-0.42c-0.09-0.19-0.18-0.33-0.26-0.42
		c0.06-0.09,0.12-0.1,0.18-0.04c0.06,0.21,0.21,0.47,0.44,0.79v-0.4c0.26,0.26,0.45,0.4,0.57,0.4l0.22-0.53
		c0.03,0.18,0.09,0.35,0.18,0.53c0.06-0.09,0.19-0.13,0.4-0.13c0.09,0,0.06,0.03-0.09,0.09l-0.22,1.01
		c0.09-0.09,0.28-0.13,0.57-0.13c0.32,0,0.48,0.06,0.48,0.18c-0.21-0.2-0.31-0.35-0.31-0.44c0.18,0.18,0.44,0.4,0.79,0.66l0.26-0.53
		c-0.03,0.15,0.07,0.32,0.31,0.53c-0.03-0.03-0.04-0.06-0.04-0.09c0.12-0.03,0.26-0.04,0.44-0.04c0-0.47-0.04-0.64-0.13-0.53
		c0.15,0.09,0.29,0.06,0.44-0.09c-0.38,0-0.6-0.04-0.66-0.13c0.09-0.12,0.26-0.29,0.53-0.53c-0.09-0.09-0.15-0.2-0.18-0.35
		c-0.03,0-0.05,0.02-0.07,0.07s-0.09,0.07-0.24,0.07c-0.12,0-0.21-0.07-0.29-0.2s-0.12-0.2-0.15-0.2c0,0.21-0.03,0.34-0.09,0.4
		c-0.09-0.09-0.13-0.2-0.13-0.35c0,0.15-0.04,0.22-0.13,0.22c-0.32,0-0.59-0.19-0.79-0.57c0.15,0.03,0.38,0,0.7-0.09h-0.18
		c-0.06-0.26-0.16-0.54-0.31-0.83c0.09,0-0.16-0.03-0.75-0.09c0.12,0.09,0.1,0.21-0.04,0.35c-0.18-0.18-0.29-0.26-0.35-0.26
		c0,0.21-0.03,0.34-0.09,0.4l-0.48-0.35c0.21-0.15,0.37-0.16,0.48-0.04l0.57-0.7l0.26,0.26c0-0.09,0.04-0.18,0.13-0.26
		c0.18,0.18,0.31,0.26,0.4,0.26c0.18,0.21,0.28,0.31,0.31,0.31c0.35,0,0.53-0.03,0.53-0.09c-0.06-0.18-0.04-0.32,0.04-0.44
		c0.26-0.12,0.64-0.26,1.14-0.44c0-0.12,0,0.1,0,0.66c0.09,0,0.18,0.03,0.26,0.09c-0.09,0.09-0.18,0.13-0.26,0.13
		c0.18,0,0.31,0.06,0.4,0.18c-0.12,0.29-0.19,0.44-0.22,0.44c-0.21,0-0.23,0.13-0.09,0.4c0.32-0.12,0.59-0.38,0.79-0.79
		c0.15,0.32,0.32,0.54,0.53,0.66c0.32-0.12,0.53-0.13,0.62-0.04l-0.66,0.83c0.26,0.15,0.42,0.34,0.48,0.57
		c0.44,0,0.75-0.16,0.92-0.48c0.06-0.23,0.13-0.45,0.22-0.66l-0.7-0.26c0.18-0.06,0.27-0.12,0.29-0.18
		c0.01-0.06,0.04-0.16,0.07-0.31l0.44,0.4l0.57-2.02c-0.18,0-0.26-0.06-0.26-0.18c0.35-0.23,0.54-0.23,0.57,0
		c0-0.09,0.07-0.22,0.22-0.4v0.09c0.03,0.09,0.03,0.16,0,0.22c-0.09,0.15,0.04,0.32,0.4,0.53l0.4-0.83
		c0.09,0.09,0.13,0.18,0.13,0.26L357.3,2.87z M345.48,52.84c0-0.15-0.21-0.32-0.62-0.53c-0.09,0.21-0.25,0.5-0.48,0.88
		c0.09,0.09,0.15,0.21,0.18,0.35l0.62-0.13C345.17,53.26,345.28,53.07,345.48,52.84z M345.35,10.03c-0.21,0-0.31-0.1-0.31-0.31
		l-0.35,0.66c0.06-0.03,0.17-0.08,0.33-0.15C345.18,10.16,345.29,10.09,345.35,10.03z M345.88,4.45c-0.21,0-0.31-0.09-0.31-0.26v0.4
		C345.57,4.5,345.67,4.45,345.88,4.45z M346.58,8.93c-0.21,0-0.31-0.1-0.31-0.31l-0.35,0.66c0.06-0.03,0.17-0.08,0.33-0.15
		C346.41,9.06,346.52,8.99,346.58,8.93z M346.84,26.42c0.18-0.09-0.1-0.13-0.83-0.13v1.36c0.03-0.15,0.15-0.32,0.35-0.53
		c0.09,0.09,0.13,0.22,0.13,0.4L346.84,26.42z M347.42,9.64c-0.23,0-0.35-0.1-0.35-0.31l-0.31,0.66c0.03-0.06,0.13-0.12,0.31-0.2
		C347.24,9.72,347.36,9.67,347.42,9.64z M348.65,44.44c0-0.23-0.21-0.59-0.62-1.05c-0.21,0.21-0.31,0.48-0.31,0.83
		c0.03-0.03,0.12,0.1,0.26,0.4C348.22,44.59,348.44,44.53,348.65,44.44z M348.91,49.01v-0.48c-0.18-0.12-0.4-0.26-0.66-0.44
		c-0.15,0.12-0.09,0.47,0.18,1.05L348.91,49.01z M349.44,30.38V29.9l-0.48-0.57c0,0.06,0.03,0.16,0.09,0.31
		c-0.09,0.03-0.22,0.28-0.4,0.75H349.44z M349.44,4.54c-0.21,0.38-0.31,0.56-0.31,0.53c0-0.32-0.07-0.41-0.22-0.26L349.44,4.54z
		 M349.96,27.83c-0.12,0-0.37-0.23-0.75-0.7c0,0.15,0.09,0.31,0.26,0.48l-0.44,0.4v0.44c0.23,0,0.35,0.07,0.35,0.22
		c0-0.21,0.06-0.37,0.18-0.48c0.12,0,0.18,0.07,0.18,0.22c0,0.09,0.04,0.04,0.11-0.13S349.96,27.95,349.96,27.83z M350.4,24.36
		v-1.63l-0.18,0.13l-0.31-0.4l-0.4,0.97c-0.18-0.18-0.28-0.26-0.31-0.26l-0.13,0.79l0.31-0.4l0.13,0.92
		c0.09-0.09,0.23-0.26,0.44-0.53C350.23,24.23,350.38,24.36,350.4,24.36z M354.23,30.56c-0.03,0-0.13,0.09-0.31,0.26l-0.22-0.22
		c0.09-0.18,0.13-0.51,0.13-1.01c-0.15,0-0.37-0.07-0.66-0.22c-0.06,0.06,0.12,0.09,0.53,0.09c0.15,0,0.24-0.07,0.29-0.22
		c0.04-0.15,0.08-0.22,0.11-0.22V28.4c-0.03-0.06-0.42-0.21-1.19-0.44c0.09,0.44-0.01,0.66-0.31,0.66c0.03,0-0.18,0.07-0.62,0.22
		c0.21,0,0.25,0.06,0.13,0.18c-0.56,0-0.92-0.04-1.1-0.13c-0.09,0.09-0.19,0.16-0.31,0.22l-0.7,1.01l0.44-0.26
		c-0.03,0.18,0.06,0.42,0.26,0.75c-0.09,0.18-0.22,0.42-0.4,0.75l0.44-0.26c0.09,0.09,0.12,0.15,0.09,0.18
		c-0.26,0.06-0.59,0.15-0.97,0.26c0,0.23-0.07,0.5-0.22,0.79c-0.12-0.12-0.28-0.12-0.48,0c0.41,0.21,0.6,0.4,0.57,0.57
		c-0.09,0-0.17-0.02-0.24-0.07c-0.07-0.04-0.12-0.07-0.15-0.07c0,0.09-0.04,0.21-0.13,0.35s-0.13,0.25-0.13,0.31l0.53-0.04v0.83
		c0.03,0,0.18-0.13,0.44-0.4c0.35,0.7,0.53,0.92,0.53,0.66c0.29,0,0.42-0.01,0.4-0.04c-0.18,0.21-0.4,0.28-0.66,0.22
		c0,0.09,0.03,0.18,0.09,0.26c0,0.09-0.04,0.19-0.13,0.31s-0.13,0.22-0.13,0.31c0,0.23,0.12,0.53,0.35,0.88
		c0-0.35,0.15-0.4,0.44-0.13l0.4-0.92l0.26,0.26c0.29-0.94,0.44-1.3,0.44-1.1c-0.26,0-0.4-0.1-0.4-0.31
		c0.09-0.09,0.13-0.25,0.13-0.48c-0.18,0-0.26-0.06-0.26-0.18c0-0.15,0.09-0.15,0.26,0c0-0.09-0.12-0.18-0.35-0.26l-0.44-0.26
		c0-0.15,0.03-0.25,0.09-0.31v0.13c-0.12-0.03-0.03-0.15,0.26-0.35c0.21-0.06,0.38-0.09,0.53-0.09c-0.23,0-0.4-0.04-0.48-0.13
		l0.22-0.22c0.23,0.15,0.54,0.19,0.92,0.13c0.06,0.03,0.13,0.1,0.22,0.2c0.09,0.1,0.16,0.17,0.22,0.2c0.32-0.06,0.7-0.21,1.14-0.44
		C354.3,31.32,354.34,30.79,354.23,30.56z M349.53,30.6l-0.22-0.09l-0.18,0.35l0.22,0.09L349.53,30.6z M349.75,8.19
		c-0.23-0.23-0.25-0.35-0.04-0.35c0,0.06,0.01,0.15,0.04,0.26C349.75,8.22,349.75,8.25,349.75,8.19z M350.18,31l-0.22-0.22
		l-0.13,0.13l0.18,0.22L350.18,31z M350.67,58.15c-0.06-0.21-0.16-0.51-0.31-0.92l-0.35,0.79L350.67,58.15z M350.62,6.78
		c0,0.18-0.13,0.26-0.4,0.26c0.09,0,0.18,0.07,0.26,0.22C350.58,7.18,350.62,7.02,350.62,6.78z M351.5,5.64l-0.35,0.26
		c-0.26,0.09-0.56,0.23-0.88,0.44C350.74,6.4,351.15,6.17,351.5,5.64z M351.15,7.92l-0.35,0.31l-0.13-0.13l0.31-0.35L351.15,7.92z
		 M351.59,27.79c0,0.18-0.09,0.22-0.26,0.13c-0.15-0.26-0.31-0.4-0.48-0.4l-0.13,1.1l0.44-0.26c0.26,0.26,0.38,0.4,0.35,0.4
		L351.59,27.79z M351.5,31.61c-0.12,0-0.23,0.02-0.33,0.07c-0.1,0.04-0.17,0.07-0.2,0.07c0-0.23,0.12-0.45,0.35-0.66
		C351.44,31.2,351.5,31.38,351.5,31.61z M351.81,7.26l-0.09-0.18l-0.31,0.13v0.22L351.81,7.26z M353.3,30.73
		c-0.18,0-0.42,0.21-0.75,0.62l-0.92-0.31c0.23-0.18,0.42-0.57,0.57-1.19c0.7,0,0.92,0.06,0.66,0.18c-0.29-0.29-0.25-0.44,0.13-0.44
		v0.75C353.03,30.6,353.13,30.73,353.3,30.73z M352.51,33.54v-0.53h-0.22v0.53H352.51z M353.13,32.36h-0.35v-0.22h0.35V32.36z
		 M355.77,17.9c-0.09-0.09-0.21-0.16-0.35-0.22C355.27,17.83,355.38,17.9,355.77,17.9z M356.16,47.47
		c-0.09-0.09-0.21-0.16-0.35-0.22C355.66,47.4,355.78,47.47,356.16,47.47z M356.07,5.33v-0.4h-0.22v0.4H356.07z M357,43.52
		c-0.09-0.09-0.21-0.18-0.35-0.26C356.5,43.43,356.62,43.52,357,43.52z M357,45.41c-0.09-0.09-0.21-0.16-0.35-0.22
		C356.5,45.34,356.62,45.41,357,45.41z M357.74,4.72l-0.22-0.09l-0.18,0.35l0.18,0.09L357.74,4.72z M358.75,3.53
		c0.03-0.26-0.13-0.4-0.48-0.4l-0.57,0.31c0,0.32,0.18,0.48,0.53,0.48c-0.18-0.15-0.16-0.22,0.04-0.22
		c0.09,0.09,0.21,0.13,0.35,0.13C358.62,3.75,358.67,3.65,358.75,3.53z M358.8,2.65l-0.18-0.04l-0.18,0.35l0.18,0.09L358.8,2.65z
		 M359.72,2.21c-0.26-0.09-0.47-0.13-0.62-0.13C358.9,2.25,358.8,2.56,358.8,3c0.03,0,0.07-0.02,0.11-0.07
		c0.04-0.04,0.14-0.07,0.29-0.07c0.12,0,0.21,0.04,0.26,0.13s0.1,0.13,0.13,0.13c0-0.09,0.02-0.24,0.07-0.46
		C359.7,2.45,359.72,2.3,359.72,2.21z M359.98,54.2c-0.09-0.09-0.21-0.18-0.35-0.26C359.72,54.02,359.84,54.11,359.98,54.2z
		 M364.25,2.65c-0.15-0.06-0.42-0.16-0.83-0.31l-0.31-0.31c-0.15,0.15-0.29,0.22-0.44,0.22c0.23,0,0.28,0.07,0.13,0.22
		c-0.53-0.26-0.76-0.4-0.7-0.4c-0.03,0-0.04,0.03-0.02,0.09c0.01,0.06-0.01,0.16-0.07,0.31c-0.09-0.09-0.22-0.13-0.4-0.13
		l-0.09,0.13c-0.15-0.18-0.45-0.26-0.92-0.26c-0.12,0-0.27,0.1-0.46,0.29c-0.19,0.19-0.33,0.29-0.42,0.29l0.57,0.31
		c0.03-0.03,0.04,0.13,0.04,0.48c0.03-0.32,0.16-0.47,0.4-0.44c0.15,0.18,0.26,0.26,0.35,0.26c-0.09-0.12-0.06-0.25,0.09-0.4
		l0.44,0.4V2.87c0.03,0,0.21,0.18,0.53,0.53V2.87l0.4,0.26c0.09-0.09,0.21-0.13,0.35-0.13c-0.06,0,0.32,0.15,1.14,0.44
		C364.17,3.44,364.25,3.18,364.25,2.65z M360.64,4.23c0-0.35-0.06-0.57-0.18-0.66c-0.21,0.21-0.31,0.38-0.31,0.53
		c0.09,0,0.19-0.04,0.31-0.13C360.56,4.06,360.61,4.14,360.64,4.23z M362.84,59.21v-0.22l-0.75-0.18v0.26L362.84,59.21z
		 M362.62,1.73c-0.09-0.09-0.21-0.16-0.35-0.22C362.09,1.65,362.21,1.73,362.62,1.73z M365.35,25.33h-1.36
		c-0.15,0-0.23,0.04-0.24,0.13s-0.04,0.13-0.07,0.13c-0.06-0.03-0.08-0.1-0.07-0.22c0.01-0.12-0.01-0.21-0.07-0.26
		c0.09-0.06,0.19-0.1,0.31-0.13l-0.92-0.31c0,0.09,0.03,0.19,0.09,0.31c-0.5,0.29-0.73,0.44-0.7,0.44c0.09,0,0.21,0.04,0.37,0.13
		s0.29,0.1,0.37,0.04l0.4,0.57c0.29,0.06,0.48,0.19,0.57,0.4l1.01-0.13C365.24,26.04,365.35,25.68,365.35,25.33z M363.15,26.07
		v-0.22h-0.53v0.22H363.15z M363.5,27.79c0-0.35-0.04-0.57-0.13-0.66c-0.23,0.21-0.35,0.38-0.35,0.53c0.09,0,0.21-0.04,0.35-0.13
		C363.43,27.61,363.47,27.7,363.5,27.79z M367.1,3.79c0-0.18-0.03-0.33-0.09-0.46s-0.09-0.21-0.09-0.24c0,0.15-0.09,0.22-0.26,0.22
		c-0.15-0.12-0.41-0.34-0.79-0.66c0.09-0.06,0.15-0.09,0.18-0.09c0.06,0,0.12,0.03,0.18,0.09c-0.21-0.2-0.5-0.31-0.88-0.31
		c0.03,0.32-0.04,0.54-0.22,0.66c0.03,0-0.12,0-0.44,0c-0.03,0.12-0.09,0.29-0.18,0.51s-0.16,0.37-0.22,0.46
		c-0.15-0.18-0.25-0.26-0.31-0.26l0.31,0.66c0.09-0.09,0.19-0.13,0.31-0.13c0.38,0,0.7,0.15,0.97,0.44c0.09-0.2,0.22-0.48,0.4-0.83
		c0.26,0.26,0.37,0.4,0.31,0.4c0-0.18,0.07-0.26,0.22-0.26l0.31,0.26L367.1,3.79z M365.3,4.72V4.45h-0.35v0.26H365.3z M368.07,27.44
		c0.06,0.06-0.04,0.09-0.31,0.09c-0.09,0-0.28-0.18-0.57-0.53c0.06,0.18-0.15,0.47-0.62,0.88l1.19,0.48L368.07,27.44z M367.15,64.13
		l-0.13,0.13l-0.22-0.22l0.18-0.13L367.15,64.13z M367.37,28.53v-0.22h-0.35v0.22H367.37z M370.66,53.5
		c-0.06-0.09-0.18-0.16-0.35-0.22C370.17,53.42,370.28,53.5,370.66,53.5z M371.63,2.83c-0.09-0.09-0.21-0.16-0.35-0.22
		C371.13,2.75,371.25,2.83,371.63,2.83z M371.89,8.58c-0.15-0.32-0.37-0.48-0.66-0.48l0.18,0.48H371.89z M371.63,6.39
		c-0.09-0.09-0.21-0.16-0.35-0.22C371.37,6.25,371.48,6.33,371.63,6.39z"/>
	<path d="M411.62,3.4c-0.29,0.15-0.53,0.41-0.7,0.79c0,0.15,0.15,0.22,0.44,0.22c0,0.06-0.04,0.18-0.13,0.35
		c0,0.23,0.13,0.35,0.4,0.35v7.73c-0.18-0.15-0.26-0.29-0.26-0.44l-0.4-0.26c-0.26,0-0.47,0.23-0.62,0.7
		c0.35-0.03,0.01-0.22-1.01-0.57c-0.26,0-0.42,0.19-0.48,0.57h-6.99c-0.09,0-0.15,0.1-0.2,0.29c-0.04,0.19-0.1,0.27-0.15,0.24
		c-0.03,0.12,0.04,0.18,0.22,0.18v1.1c-0.15-0.12-0.26-0.18-0.35-0.18c0.12-0.38,0.07-0.79-0.13-1.23
		c-0.09-0.09-0.21-0.13-0.35-0.13l-0.35,0.4v0.79l0.22,0.35c0.06-0.09,0.1-0.13,0.13-0.13c0,0.26,0.09,0.59,0.26,0.97
		c0.18-0.06,0.37-0.22,0.57-0.48v5.71c-0.7,0.47-1.05,0.97-1.05,1.49c0,0.06,0.04,0.22,0.13,0.48c0.09,0.23,0.09,0.53,0,0.88
		c0.15,0.23,0.4,0.62,0.75,1.14c0.03,0.06,0.1,0.15,0.22,0.26l-0.57,0.7l0.57,1.41l-0.57,1.14c0.03-0.15,0.22,0.06,0.57,0.62V41.1
		c-0.18,0.21-0.37,0.42-0.57,0.66v0.4l0.31,0.26l0.26-0.13v4.35c0.03,0.88-0.16,1.41-0.57,1.58l-0.26,0.26l0.09,0.57
		c0.09-0.09,0.12-0.22,0.09-0.4v0.75l0.31,0.48c0.26-0.26,0.38-0.4,0.35-0.4v4.39c-0.35,0.29-0.5,0.54-0.44,0.75
		c-0.03-0.06-0.09-0.16-0.18-0.31l-0.22,0.26v0.35c0.21,0.21,0.29,0.53,0.26,0.97v1.1c0.03,0.09,0.09,0.13,0.18,0.13l0.35-0.57
		c0.03,0.56-0.04,1.14-0.22,1.76c0,0.03,0.07,0.15,0.22,0.35c0.03,0.62,0.04,1.57,0.04,2.86c-0.5,0.32-0.7,0.6-0.62,0.83
		c0-0.18-0.04-0.31-0.13-0.4c-0.06,0.06-0.09,0.18-0.09,0.35c0,0.35,0.25,0.69,0.75,1.01c0.06,0.06,0.09,0.22,0.09,0.48v1.19h-0.79
		c0-0.38-0.1-0.59-0.31-0.62c-0.35-0.06-0.56-0.12-0.62-0.18c-0.15,0.12-0.18,0.23-0.09,0.35c-0.73,0.29-1,0.44-0.79,0.44h-7.51
		c0.03,0-0.04-0.09-0.22-0.26c-0.06,0.09-0.09,0.18-0.09,0.26h-0.53c-0.06-0.03-0.08-0.08-0.07-0.15c0.01-0.07-0.02-0.11-0.09-0.11
		c-0.07,0-0.37-0.13-0.9-0.4h-0.4c-0.29,0.44-0.41,0.66-0.35,0.66c-0.7,0-1.1-0.09-1.19-0.26c-0.06,0.09-0.09,0.18-0.09,0.26h-2.72
		V47.25c0.12,0.03,0.19,0,0.22-0.09c0.18,0,0.4,0.13,0.66,0.4h1.05c0.38,0,0.79,0.26,1.23,0.79c0.23,0.32,0.47,0.66,0.7,1.01
		l0.13-0.66c-0.15-0.32-0.32-0.82-0.53-1.49c0.15,0.09,0.22,0.03,0.22-0.18v-0.66c0,0.09-0.22,0-0.66-0.26
		c-0.06-0.15-0.15-0.37-0.26-0.66l-0.83-0.13c-0.06-0.09-0.13-0.6-0.22-1.54c-0.06-0.06-0.21-0.31-0.44-0.75
		c0,0.06,0.04,0.13,0.13,0.22l0.22-0.66c-0.09-0.12-0.18-0.13-0.26-0.04c0.09-0.15,0.13-0.26,0.13-0.35
		c-0.03-0.03-0.23-0.15-0.62-0.35c-0.18,0.18-0.34,0.26-0.48,0.26c-0.09-0.26-0.23-0.57-0.44-0.92l0.48,0.26l0.35-0.26
		c-0.21-0.38-0.41-0.62-0.62-0.7c-0.09,0.09-0.15,0.19-0.18,0.31V23.96l0.18,0.13l0.26-0.44c0,0.12,0.04,0.22,0.13,0.31l0.22-0.92
		c0-0.26-0.07-0.37-0.22-0.31c0-0.03-0.04-0.1-0.13-0.22c-0.09-0.35-0.25-0.53-0.48-0.53v-9.27h-9.32l0.18-0.22l-0.83-1.93V5.64
		l0.97,0.7V5.16c0-0.35-0.26-0.75-0.79-1.19c-0.06,0.09-0.12,0.21-0.18,0.35V2.61l1.54-1.32h4.53l-0.26,0.26
		c0.41,0.26,0.67,0.4,0.79,0.4c-0.23,0-0.4,0.04-0.48,0.13c0.03,0.06,0.16,0.09,0.4,0.09c0.26,0,0.64-0.1,1.14-0.31V1.51
		c0.12,0,0.26,0.07,0.44,0.22c0.06-0.12,0.15-0.29,0.26-0.53h17.8l1.32,0.53l1.58-0.53h3.12c0,0.29,0.03,0.48,0.09,0.57
		c0.03,0,0.09-0.03,0.2-0.09c0.1-0.06,0.21-0.09,0.33-0.09s0.24-0.07,0.37-0.2c0.13-0.13,0.26-0.2,0.37-0.2h3.08V3.4z M375.8,7.13
		l-0.35-0.4c0,0.21-0.1,0.31-0.31,0.31C375.17,7.1,375.39,7.13,375.8,7.13z M377.34,3.31l-0.66-0.13c0.09,0.09,0.09,0.16,0,0.22
		l-0.4-0.26c0,0.29-0.04,0.48-0.13,0.57c-0.09-0.09-0.13-0.19-0.13-0.31v0.66c0-0.09,0.06-0.16,0.18-0.22
		c0.06,0.06,0.09,0.19,0.09,0.4c0.09-0.06,0.18-0.13,0.29-0.22s0.2-0.15,0.29-0.18c0.09,0.09,0.19,0.13,0.31,0.13
		C377.17,3.65,377.23,3.43,377.34,3.31z M380.24,1.64L379.8,1.9c-0.18-0.2-0.34-0.31-0.48-0.31l-1.67,2.5l1.32-1.23L379.14,3
		l0.35-0.26l0.18,0.13L380.24,1.64z M387.19,46.64h-0.4v-0.26h0.4V46.64z M388.37,40.44v-1.05h-0.26v1.05H388.37z M388.72,32.8
		c0-0.73-0.01-1.14-0.04-1.23l-0.48,1.36c0.09,0,0.19-0.02,0.31-0.07C388.62,32.82,388.7,32.8,388.72,32.8z M390.09,48
		c0.06,0,0,0.07-0.18,0.22c-0.23-0.23-0.42-0.35-0.57-0.35c0.09,0,0.16,0.06,0.22,0.18c-0.12,0.03-0.25,0.26-0.4,0.7h1.1
		C390.26,48.6,390.2,48.35,390.09,48z M389.69,49.14v-0.26h-0.53v0.26H389.69z M390.04,64.35c0.09-0.44,0.04-0.72-0.13-0.83
		c-0.23,0.23-0.34,0.45-0.31,0.66c0.09,0,0.19-0.04,0.31-0.13C390,64.13,390.04,64.23,390.04,64.35z M393.51,56.13
		c0.09-0.38,0.06-0.83-0.09-1.36c-0.29,0.03-0.51-0.04-0.66-0.22c0,0.23-0.07-0.32-0.22-1.67c-0.38-0.53-0.54-0.86-0.48-1.01
		l-0.79-0.13c0,0.21-0.15,0.4-0.44,0.57l1.23,1.41c-0.09,0.18-0.26,0.44-0.53,0.79c-0.26,0-0.45,0.06-0.57,0.18v0.18
		c0.15-0.06,0.29-0.07,0.44-0.04c-0.03,0.09-0.03,0.21,0,0.35c0.21,0,0.34,0.03,0.4,0.09l-0.44,0.31c0.35,0,0.57-0.09,0.66-0.26
		l0.18,0.22c-0.26,0.56-0.4,0.76-0.4,0.62c0.29,0.32,0.73,0.75,1.32,1.27c0-0.21,0.06-0.37,0.18-0.48v-0.44
		c0-0.18,0.03-0.38,0.09-0.62C393.47,55.96,393.51,56.04,393.51,56.13z M392.64,30.56c-0.23-0.21-0.5-0.47-0.79-0.79
		c0,0.29-0.01,0.45-0.04,0.48c-0.03,0.29,0.13,0.51,0.48,0.66L392.64,30.56z M392.37,56.13h-0.22v-0.4h0.22V56.13z M393.16,10.34
		c0-0.15-0.06-0.28-0.18-0.4c-0.21,0.21-0.37,0.31-0.48,0.31v0.92C392.94,10.77,393.16,10.49,393.16,10.34z M399.84,63.87
		c0-0.35-0.13-0.66-0.4-0.92c0,0.09-0.03,0.18-0.09,0.26l-0.4-0.35h-0.26c-0.15-0.12-0.34-0.25-0.57-0.4
		c-0.41-0.15-0.95-0.21-1.63-0.18c0,0.21-0.01,0.34-0.04,0.4c-0.12-0.23-0.28-0.53-0.48-0.88c-0.06,0.03-0.16-0.03-0.31-0.18
		l0.26-0.57c-0.18,0-0.35-0.09-0.53-0.26c0,0.06,0.09-0.13,0.26-0.57c-0.64-0.23-0.85-0.78-0.62-1.63
		c-0.23-0.21-0.35-0.47-0.35-0.79c0-0.12,0.02-0.2,0.07-0.24c0.04-0.04,0.07-0.08,0.07-0.11l-1.19-0.62
		c-0.32,0.26-0.37,0.59-0.15,0.97c0.22,0.38,0.07,0.82-0.46,1.32l1.01,1.45c0.03,0,0.09-0.02,0.18-0.07
		c0.09-0.04,0.21-0.07,0.35-0.07c0.12,0,0.18,0.09,0.18,0.26l0.44-0.26c0.09,0.09,0.12,0.16,0.09,0.22
		c-0.12,0.21-0.26,0.29-0.44,0.26c0.09,0,0.13,0.09,0.13,0.26c-0.15,0.18-0.28,0.26-0.4,0.26v0.66c0.21,0,0.31,0.13,0.31,0.4
		c0.03,0,0.18-0.13,0.44-0.4l0.83,1.1c0.18-0.18,0.34-0.19,0.48-0.04c-0.09,0.09-0.15,0.18-0.18,0.26c0.12,0.09,0.23,0.23,0.35,0.44
		c0.03,0.09-0.03,0.23-0.18,0.44l1.32-0.26c0.21,0.21,0.31,0.37,0.31,0.48c0-0.41-0.03-0.63-0.09-0.66
		c0.09-0.09,0.16-0.12,0.22-0.09c0.15,0.18,0.38,0.45,0.7,0.83v-0.57c0.09,0,0.22,0.1,0.4,0.31L399.84,63.87z M394.88,61.98h-0.22
		v-0.4h0.22V61.98z M400.59,14.21v-0.66h-0.26v0.66H400.59z M401.12,56.53v-0.48h-0.22v0.48H401.12z"/>
</g>
</svg>
